<?xml version="1.0" encoding="UTF-8"?>
<svg width="2040" height="1500" viewBox="0 0 2040 1500"
     xmlns="http://www.w3.org/2000/svg"
     style="background:#fff; font-family:Arial, Helvetica, sans-serif;">
<defs>
  <marker id="ah" markerWidth="10" markerHeight="7" refX="10" refY="3.5" orient="auto">
    <polygon points="0 0,10 3.5,0 7" fill="#495057"/>
  </marker>
  <linearGradient id="frontGrad" x1="0%" y1="0%" x2="0%" y2="100%">
    <stop offset="0%" style="stop-color:#2b2b2b"/>
    <stop offset="100%" style="stop-color:#1a1a1a"/>
  </linearGradient>
  <linearGradient id="screenGrad" x1="0%" y1="0%" x2="0%" y2="100%">
    <stop offset="0%" style="stop-color:#0a1628"/>
    <stop offset="100%" style="stop-color:#0f1f3a"/>
  </linearGradient>
  <linearGradient id="accentGrad" x1="0%" y1="0%" x2="100%" y2="100%">
    <stop offset="0%" style="stop-color:#00a884"/>
    <stop offset="100%" style="stop-color:#008e6f"/>
  </linearGradient>
</defs>

<!-- Header -->
<rect x="20" y="20" width="2000" height="1" fill="#dee2e6"/>
<text x="20" y="44" font-family="Arial, sans-serif" font-size="14" fill="#868e96">
文档：SYS-ARCH-006-S2 v3 | 方案B-v3 — 参照ITECH 8500真实布局修正 | 2026-05-28</text>
<text x="1510" y="44" font-family="Arial, sans-serif" font-size="14" fill="#00a884" font-weight="bold">
★ v3更新：全宽屏幕 + 右上编码器 + 右侧端子 + 左侧电源开关 + USB移至后盖</text>
<line x1="20" y1="50" x2="2020" y2="50" stroke="#dee2e6" stroke-width="1"/>

<!-- ═══════════════════════════════════════════════════════════ -->
<!-- VIEW A: 整机外观轴测图 -->
<!-- ═══════════════════════════════════════════════════════════ -->
<rect x="20" y="55" width="960" height="470" fill="#f8f9fa" stroke="#dee2e6" stroke-width="1" rx="0"/>
<text x="500" y="77" font-family="Arial, sans-serif" font-size="16" fill="#212529" font-weight="bold" text-anchor="middle">A : 整机外观效果 (45° 轴测)</text>

<!-- 壳体 -->
<polygon points="280,410 280,190 700,190 700,410" fill="#2b2b2b" stroke="#1a1a1a" stroke-width="1.5"/>
<polygon points="280,190 700,190 820,140 400,140" fill="#3a3a3a" stroke="#2a2a2a" stroke-width="1.5"/>
<polygon points="700,190 700,410 820,360 820,140" fill="#222" stroke="#1a1a1a" stroke-width="1.5"/>

<!-- 顶部散热格栅 -->
<rect x="320" y="162" width="120" height="4" rx="1" fill="#333" transform="rotate(-15,380,164)"/>
<rect x="340" y="158" width="120" height="4" rx="1" fill="#333" transform="rotate(-15,400,160)"/>
<rect x="360" y="154" width="120" height="4" rx="1" fill="#333" transform="rotate(-15,420,156)"/>
<rect x="380" y="150" width="120" height="4" rx="1" fill="#333" transform="rotate(-15,440,152)"/>

<!-- 前面板 - 顶部青绿装饰条 -->
<polygon points="280,190 700,190 700,196 280,196" fill="url(#accentGrad)"/>

<!-- 前面板 - 全宽屏幕 -->
<rect x="310" y="218" width="310" height="125" rx="4" fill="url(#screenGrad)" stroke="#444" stroke-width="1.5"/>
<text x="465" y="258" font-family="monospace" font-size="20" fill="#00ff88" font-weight="bold" text-anchor="middle">24.000 V</text>
<text x="465" y="285" font-family="monospace" font-size="20" fill="#ffaa00" font-weight="bold" text-anchor="middle">10.000 A</text>
<line x1="325" y1="298" x2="605" y2="298" stroke="#444" stroke-width="0.5"/>
<text x="355" y="315" font-family="monospace" font-size="10" fill="#888">CC Mode</text>
<text x="480" y="315" font-family="monospace" font-size="10" fill="#888">1000.0 W</text>
<rect x="308" y="216" width="314" height="129" rx="5" fill="none" stroke="#00a884" stroke-width="1" opacity="0.3"/>

<!-- 编码器 (屏幕右上角) -->
<circle cx="600" cy="233" r="10" fill="#3a3a3a" stroke="#555" stroke-width="1.5"/>
<circle cx="600" cy="233" r="6" fill="#444" stroke="#666" stroke-width="1"/>
<circle cx="600" cy="233" r="2" fill="#00a884"/>
<text x="600" y="250" font-family="Arial" font-size="5" fill="#888" text-anchor="middle">旋钮</text>

<!-- 电源开关 (左侧) -->
<circle cx="320" cy="378" r="12" fill="#444" stroke="#666" stroke-width="1.5"/>
<circle cx="320" cy="378" r="8" fill="#3a3a3a" stroke="#555" stroke-width="1"/>
<line x1="320" y1="366" x2="320" y2="386" stroke="#555" stroke-width="1.5"/>
<text x="320" y="405" font-family="Arial" font-size="6" fill="#888" text-anchor="middle">⏻电源</text>

<!-- 模式键区域 -->
<rect x="365" y="358" width="130" height="42" rx="3" fill="#2a2a2a" stroke="#3a3a3a" stroke-width="0.5"/>
<text x="430" y="370" font-family="Arial" font-size="5" fill="#888" text-anchor="middle">模式</text>
<rect x="370" y="374" width="28" height="11" rx="1.5" fill="#333" stroke="#555" stroke-width="0.5"/><text x="384" y="382" font-size="6" fill="#ddd" text-anchor="middle" font-family="Arial">CV</text>
<rect x="401" y="374" width="28" height="11" rx="1.5" fill="#333" stroke="#555" stroke-width="0.5"/><text x="415" y="382" font-size="6" fill="#ddd" text-anchor="middle" font-family="Arial">CC</text>
<rect x="432" y="374" width="28" height="11" rx="1.5" fill="#333" stroke="#555" stroke-width="0.5"/><text x="446" y="382" font-size="6" fill="#ddd" text-anchor="middle" font-family="Arial">CW</text>
<rect x="463" y="374" width="28" height="11" rx="1.5" fill="#333" stroke="#555" stroke-width="0.5"/><text x="477" y="382" font-size="6" fill="#ddd" text-anchor="middle" font-family="Arial">CR</text>
<rect x="370" y="388" width="28" height="10" rx="1.5" fill="#333" stroke="#555" stroke-width="0.5"/><text x="384" y="396" font-size="5" fill="#bbb" text-anchor="middle" font-family="Arial">LED</text>
<rect x="401" y="388" width="28" height="10" rx="1.5" fill="#333" stroke="#555" stroke-width="0.5"/><text x="415" y="396" font-size="5" fill="#bbb" text-anchor="middle" font-family="Arial">BAT</text>
<rect x="432" y="388" width="28" height="10" rx="1.5" fill="#333" stroke="#555" stroke-width="0.5"/><text x="446" y="396" font-size="5" fill="#bbb" text-anchor="middle" font-family="Arial">DYN</text>
<rect x="463" y="388" width="28" height="10" rx="1.5" fill="#333" stroke="#555" stroke-width="0.5"/><text x="477" y="396" font-size="5" fill="#bbb" text-anchor="middle" font-family="Arial">OCP</text>

<!-- 输入端子 (右侧) -->
<rect x="518" y="358" width="108" height="42" rx="3" fill="#2a2a2a" stroke="#3a3a3a" stroke-width="0.5"/>
<text x="572" y="370" font-family="Arial" font-size="5" fill="#888" text-anchor="middle">输入</text>
<rect x="524" y="376" width="47" height="20" rx="2" fill="#e74c3c" stroke="#c0392b" stroke-width="0.8"/><text x="547" y="390" font-size="8" fill="#fff" text-anchor="middle" font-family="Arial" font-weight="bold">DC+</text>
<rect x="575" y="376" width="47" height="20" rx="2" fill="#3498db" stroke="#2980b9" stroke-width="0.8"/><text x="598" y="390" font-size="8" fill="#fff" text-anchor="middle" font-family="Arial" font-weight="bold">DC−</text>

<!-- 把手 -->
<path d="M 700 170 Q 740 150 740 220" fill="none" stroke="#555" stroke-width="3" stroke-linecap="round"/>

<!-- 脚垫 -->
<rect x="285" y="405" width="20" height="6" rx="2" fill="#333"/>
<rect x="690" y="405" width="20" height="6" rx="2" fill="#333"/>

<!-- 标注 -->
<text x="465" y="455" font-family="Arial" font-size="9" fill="#495057" text-anchor="middle">整机：W310×D370×H120mm | SPCC 1.5mm壳体 + 铝前面板5mm (RAL 7021) | 青绿装饰条</text>
<text x="465" y="470" font-family="Arial" font-size="9" fill="#495057" text-anchor="middle">橡胶脚垫×4 | 不锈钢把手 | 散热器脊柱内置</text>
<text x="465" y="485" font-family="Arial" font-size="8" fill="#00a884" text-anchor="middle">★ v3 布局：全宽屏幕(上)+编码器(屏幕右上)+电源开关(左)+模式键(中)+输入端子(右)</text>

<!-- 顶部散热标注 -->
<path d="M 300 165 L 270 165" stroke="#e03131" stroke-width="1" marker-end="url(#ah)"/>
<text x="260" y="162" font-family="Arial" font-size="7" fill="#e03131" text-anchor="end">散热格栅</text>

<!-- ═══════════════════════════════════════════════════════════ -->
<!-- VIEW B: 前面板正视图 -->
<!-- 面板: x:195→815 (620px=310mm)  y:580→820 (240px=120mm) -->
<!-- ═══════════════════════════════════════════════════════════ -->
<rect x="20" y="545" width="960" height="430" fill="#f8f9fa" stroke="#dee2e6" stroke-width="1" rx="0"/>
<text x="500" y="567" font-family="Arial, sans-serif" font-size="16" fill="#212529" font-weight="bold" text-anchor="middle">B : 前面板正视图 (W310 × H120mm)  参照 ITECH 8500 布局</text>

<!-- 面板主体 -->
<rect x="195" y="580" width="620" height="240" rx="6" fill="url(#frontGrad)" stroke="#1a1a1a" stroke-width="2"/>

<!-- ═══ Zone 1: 顶部装饰条 + 品牌 (y:580→594) ═══ -->
<rect x="195" y="580" width="620" height="6" rx="3" fill="url(#accentGrad)"/>
<rect x="197" y="584" width="616" height="1" fill="#00a884" opacity="0.4"/>
<text x="505" y="593" font-family="Arial, sans-serif" font-size="8" fill="#00a884" font-weight="bold" text-anchor="middle">NRS 1000W · 可编程直流电子负载  |  150V / 60A / 1000W</text>

<!-- ═══ Zone 2: 全宽屏幕 (y:598→730, h:132) ═══ -->
<!-- 屏幕框 -->
<rect x="205" y="598" width="600" height="132" rx="3" fill="#222" stroke="#444" stroke-width="1"/>
<rect x="210" y="603" width="590" height="122" rx="2" fill="url(#screenGrad)" stroke="#333" stroke-width="0.5"/>

<!-- 屏幕内容 - 主参数 -->
<text x="505" y="648" font-family="monospace" font-size="32" fill="#00ff88" font-weight="bold" text-anchor="middle">24.000 V</text>
<text x="505" y="684" font-family="monospace" font-size="32" fill="#ffaa00" font-weight="bold" text-anchor="middle">10.000 A</text>

<!-- 屏幕分隔线 -->
<line x1="225" y1="695" x2="785" y2="695" stroke="#444" stroke-width="0.5"/>

<!-- 屏幕下排信息 -->
<text x="240" y="714" font-family="monospace" font-size="11" fill="#888">CC Mode</text>
<text x="440" y="714" font-family="monospace" font-size="11" fill="#888">1000.0 W</text>
<text x="240" y="730" font-family="monospace" font-size="9" fill="#666">V-Set: 24.000V</text>
<text x="420" y="730" font-family="monospace" font-size="9" fill="#666">I-Set: 10.000A</text>
<text x="660" y="714" font-family="monospace" font-size="9" fill="#666">Time: 00:12:34</text>
<text x="660" y="730" font-family="monospace" font-size="9" fill="#666">Ahr: 1.234</text>

<!-- 编码器 (屏幕右上角) -->
<circle cx="775" cy="615" r="14" fill="#3a3a3a" stroke="#555" stroke-width="1.5"/>
<circle cx="775" cy="615" r="8" fill="#444" stroke="#666" stroke-width="1"/>
<circle cx="775" cy="615" r="3" fill="url(#accentGrad)"/>
<text x="775" y="638" font-family="Arial" font-size="6" fill="#888" text-anchor="middle">编码器</text>

<!-- ═══ Zone 3: 按键+端子区 (y:738→808, h:70) ═══ -->
<!-- 用分隔线标识 -->
<line x1="205" y1="738" x2="800" y2="738" stroke="#444" stroke-width="0.5" opacity="0.6"/>

<!-- ── 3a: 电源开关 (x:210→255, y:738→808) ── -->
<rect x="210" y="738" width="45" height="70" rx="4" fill="#2a2a2a" stroke="#3a3a3a" stroke-width="0.5"/>
<circle cx="232" cy="763" r="14" fill="#444" stroke="#666" stroke-width="1.5"/>
<circle cx="232" cy="763" r="9" fill="#3a3a3a" stroke="#555" stroke-width="1"/>
<line x1="232" y1="752" x2="232" y2="772" stroke="#555" stroke-width="2"/>
<text x="232" y="795" font-family="Arial" font-size="6" fill="#888" text-anchor="middle">电源</text>

<!-- ── 3b: 模式功能键 2×4 (x:265→395, y:738→808) ── -->
<rect x="265" y="738" width="130" height="70" rx="4" fill="#2a2a2a" stroke="#3a3a3a" stroke-width="0.5"/>
<text x="330" y="750" font-family="Arial" font-size="6" fill="#888" text-anchor="middle">— 模式 —</text>

<!-- Row1: CV, CC -->
<rect x="271" y="754" width="55" height="13" rx="2" fill="#333" stroke="#555" stroke-width="0.5"/>
<text x="298" y="764" font-size="8" fill="#ddd" text-anchor="middle" font-family="Arial">CV</text>
<rect x="331" y="754" width="55" height="13" rx="2" fill="#333" stroke="#555" stroke-width="0.5"/>
<text x="358" y="764" font-size="8" fill="#ddd" text-anchor="middle" font-family="Arial">CC</text>
<!-- Row2: CW, CR -->
<rect x="271" y="770" width="55" height="13" rx="2" fill="#333" stroke="#555" stroke-width="0.5"/>
<text x="298" y="780" font-size="8" fill="#ddd" text-anchor="middle" font-family="Arial">CW</text>
<rect x="331" y="770" width="55" height="13" rx="2" fill="#333" stroke="#555" stroke-width="0.5"/>
<text x="358" y="780" font-size="8" fill="#ddd" text-anchor="middle" font-family="Arial">CR</text>
<!-- Row3: LED, BAT -->
<rect x="271" y="786" width="55" height="13" rx="2" fill="#333" stroke="#555" stroke-width="0.5"/>
<text x="298" y="796" font-size="8" fill="#ddd" text-anchor="middle" font-family="Arial">LED</text>
<rect x="331" y="786" width="55" height="13" rx="2" fill="#333" stroke="#555" stroke-width="0.5"/>
<text x="358" y="796" font-size="8" fill="#ddd" text-anchor="middle" font-family="Arial">BAT</text>
<!-- Row4: DYN, OCP (overlap fix: move down slightly) -->
<rect x="271" y="800" width="55" height="12" rx="2" fill="#333" stroke="#555" stroke-width="0.5"/>
<text x="298" y="810" font-size="7" fill="#bbb" text-anchor="middle" font-family="Arial">DYN</text>
<rect x="331" y="800" width="55" height="12" rx="2" fill="#333" stroke="#555" stroke-width="0.5"/>
<text x="358" y="810" font-size="7" fill="#bbb" text-anchor="middle" font-family="Arial">OCP</text>

<!-- ── 3c: 数字键盘 3×4 (x:405→485, y:738→808) ── -->
<rect x="405" y="738" width="80" height="70" rx="4" fill="#2a2a2a" stroke="#3a3a3a" stroke-width="0.5"/>
<text x="445" y="750" font-family="Arial" font-size="5" fill="#666" text-anchor="middle">7 8 9</text>

<!-- Row1: 7 8 9 -->
<rect x="410" y="754" width="14" height="10" rx="1.5" fill="#444" stroke="#666" stroke-width="0.5"/><text x="417" y="762" font-size="6" fill="#eee" text-anchor="middle" font-family="Arial">7</text>
<rect x="427" y="754" width="14" height="10" rx="1.5" fill="#444" stroke="#666" stroke-width="0.5"/><text x="434" y="762" font-size="6" fill="#eee" text-anchor="middle" font-family="Arial">8</text>
<rect x="444" y="754" width="14" height="10" rx="1.5" fill="#444" stroke="#666" stroke-width="0.5"/><text x="451" y="762" font-size="6" fill="#eee" text-anchor="middle" font-family="Arial">9</text>
<!-- Row2: 4 5 6 -->
<rect x="410" y="767" width="14" height="10" rx="1.5" fill="#444" stroke="#666" stroke-width="0.5"/><text x="417" y="775" font-size="6" fill="#eee" text-anchor="middle" font-family="Arial">4</text>
<rect x="427" y="767" width="14" height="10" rx="1.5" fill="#444" stroke="#666" stroke-width="0.5"/><text x="434" y="775" font-size="6" fill="#eee" text-anchor="middle" font-family="Arial">5</text>
<rect x="444" y="767" width="14" height="10" rx="1.5" fill="#444" stroke="#666" stroke-width="0.5"/><text x="451" y="775" font-size="6" fill="#eee" text-anchor="middle" font-family="Arial">6</text>
<!-- Row3: 1 2 3 -->
<rect x="410" y="780" width="14" height="10" rx="1.5" fill="#444" stroke="#666" stroke-width="0.5"/><text x="417" y="788" font-size="6" fill="#eee" text-anchor="middle" font-family="Arial">1</text>
<rect x="427" y="780" width="14" height="10" rx="1.5" fill="#444" stroke="#666" stroke-width="0.5"/><text x="434" y="788" font-size="6" fill="#eee" text-anchor="middle" font-family="Arial">2</text>
<rect x="444" y="780" width="14" height="10" rx="1.5" fill="#444" stroke="#666" stroke-width="0.5"/><text x="451" y="788" font-size="6" fill="#eee" text-anchor="middle" font-family="Arial">3</text>
<!-- Row4: 0 . ↵ -->
<rect x="410" y="793" width="14" height="10" rx="1.5" fill="#444" stroke="#666" stroke-width="0.5"/><text x="417" y="801" font-size="6" fill="#eee" text-anchor="middle" font-family="Arial">0</text>
<rect x="427" y="793" width="14" height="10" rx="1.5" fill="#444" stroke="#666" stroke-width="0.5"/><text x="434" y="801" font-size="6" fill="#eee" text-anchor="middle" font-family="Arial">.</text>
<rect x="444" y="793" width="14" height="10" rx="1.5" fill="url(#accentGrad)" stroke="#008e6f" stroke-width="0.5"/><text x="451" y="801" font-size="6" fill="#fff" text-anchor="middle" font-family="Arial">↵</text>

<!-- ── 3d: 导航键 + On/Off (x:495→545, y:738→808) ── -->
<rect x="495" y="738" width="50" height="70" rx="4" fill="#2a2a2a" stroke="#3a3a3a" stroke-width="0.5"/>

<!-- 方向键十字 -->
<rect x="510" y="744" width="18" height="12" rx="2" fill="#444" stroke="#666" stroke-width="0.5"/><text x="519" y="753" font-size="6" fill="#ddd" text-anchor="middle" font-family="Arial">▲</text>
<rect x="506" y="758" width="12" height="12" rx="2" fill="#444" stroke="#666" stroke-width="0.5"/><text x="512" y="767" font-size="6" fill="#ddd" text-anchor="middle" font-family="Arial">◄</text>
<rect x="520" y="758" width="12" height="12" rx="2" fill="#444" stroke="#666" stroke-width="0.5"/><text x="526" y="767" font-size="6" fill="#ddd" text-anchor="middle" font-family="Arial">►</text>
<rect x="510" y="772" width="18" height="12" rx="2" fill="#444" stroke="#666" stroke-width="0.5"/><text x="519" y="781" font-size="6" fill="#ddd" text-anchor="middle" font-family="Arial">▼</text>

<!-- On/Off 按钮 (青绿) -->
<rect x="500" y="788" width="40" height="18" rx="3" fill="url(#accentGrad)" stroke="#008e6f" stroke-width="0.8"/>
<text x="520" y="801" font-family="Arial" font-size="8" fill="#fff" font-weight="bold" text-anchor="middle">On</text>

<!-- ── 3e: 输入端子 (x:558→800, y:738→808) ── -->
<rect x="558" y="738" width="242" height="70" rx="4" fill="#2a2a2a" stroke="#3a3a3a" stroke-width="0.5"/>
<text x="679" y="750" font-family="Arial" font-size="7" fill="#888" text-anchor="middle">— 输入端子 —</text>

<!-- 大电流端子 DC+ / DC- -->
<rect x="570" y="755" width="72" height="30" rx="4" fill="#e74c3c" stroke="#c0392b" stroke-width="1"/>
<circle cx="588" cy="770" r="8" fill="#c0392b" stroke="#a93226" stroke-width="0.5"/>
<text x="588" y="773" font-size="6" fill="#fff" text-anchor="middle" font-family="Arial">+</text>
<text x="620" y="774" font-family="Arial" font-size="11" fill="#fff" font-weight="bold" text-anchor="start">DC+</text>

<rect x="648" y="755" width="72" height="30" rx="4" fill="#3498db" stroke="#2980b9" stroke-width="1"/>
<circle cx="666" cy="770" r="8" fill="#2980b9" stroke="#2471a3" stroke-width="0.5"/>
<text x="666" y="773" font-size="6" fill="#fff" text-anchor="middle" font-family="Arial">−</text>
<text x="698" y="774" font-family="Arial" font-size="11" fill="#fff" font-weight="bold" text-anchor="start">DC−</text>

<!-- 小信号端子 S+ / S- -->
<rect x="726" y="755" width="32" height="15" rx="2" fill="#444" stroke="#666" stroke-width="0.5"/>
<text x="742" y="766" font-size="7" fill="#ccc" text-anchor="middle" font-family="Arial">S+</text>
<rect x="762" y="755" width="32" height="15" rx="2" fill="#444" stroke="#666" stroke-width="0.5"/>
<text x="778" y="766" font-size="7" fill="#ccc" text-anchor="middle" font-family="Arial">S−</text>

<!-- 接地符号 -->
<circle cx="742" cy="790" r="6" fill="#ffd43b" stroke="#f59f00" stroke-width="1"/>
<text x="742" y="793" font-family="Arial" font-size="7" fill="#222" text-anchor="middle" font-weight="bold">⏚</text>

<!-- 分区标注 -->
<line x1="205" y1="812" x2="205" y2="822" stroke="#00a884" stroke-width="1"/>
<line x1="505" y1="812" x2="505" y2="822" stroke="#00a884" stroke-width="1"/>
<line x1="800" y1="812" x2="800" y2="822" stroke="#00a884" stroke-width="1"/>
<text x="355" y="835" font-family="Arial" font-size="7" fill="#00a884" text-anchor="middle">① 全宽显示区（4.3" IPS 暗色主题）</text>
<text x="355" y="850" font-family="Arial" font-size="7" fill="#888" text-anchor="middle">800×480  |  右上角编码器旋钮</text>
<text x="652" y="835" font-family="Arial" font-size="7" fill="#00a884" text-anchor="middle">② 按键+端子区</text>
<text x="652" y="850" font-family="Arial" font-size="7" fill="#888" text-anchor="middle">电源开关(左) | 模式键 | 数字键 | 导航+On/Off(青绿) | 输入端子(右)</text>

<!-- 尺寸标注 -->
<line x1="195" y1="865" x2="815" y2="865" stroke="#e03131" stroke-width="1" stroke-dasharray="3,2"/>
<line x1="195" y1="870" x2="195" y2="880" stroke="#e03131" stroke-width="1"/>
<line x1="815" y1="870" x2="815" y2="880" stroke="#e03131" stroke-width="1"/>
<text x="505" y="888" font-family="Arial" font-size="9" fill="#e03131" font-weight="bold" text-anchor="middle">310 mm</text>

<!-- ═══════════════════════════════════════════════════════════ -->
<!-- VIEW C: 内部俯视图 (不变, 维持v2) -->
<!-- ═══════════════════════════════════════════════════════════ -->
<rect x="20" y="990" width="960" height="490" fill="#f8f9fa" stroke="#dee2e6" stroke-width="1" rx="0"/>
<text x="500" y="1012" font-family="Arial, sans-serif" font-size="16" fill="#212529" font-weight="bold" text-anchor="middle">C : 内部俯视图 (W310 × D370mm)  — 散热器脊柱方案不变</text>

<rect x="190" y="1030" width="620" height="420" rx="6" fill="#1a1a1a" stroke="#222" stroke-width="2"/>
<rect x="200" y="1040" width="600" height="400" rx="4" fill="#f1f3f5" stroke="#dee2e6" stroke-width="1"/>

<rect x="325" y="1070" width="350" height="340" rx="2" fill="#d0bfff" stroke="#845ef7" stroke-width="2"/>
<line x1="335" y1="1085" x2="665" y2="1085" stroke="#845ef7" stroke-width="0.5"/>
<line x1="335" y1="1105" x2="665" y2="1105" stroke="#845ef7" stroke-width="0.5"/>
<line x1="335" y1="1125" x2="665" y2="1125" stroke="#845ef7" stroke-width="0.5"/>
<line x1="335" y1="1145" x2="665" y2="1145" stroke="#845ef7" stroke-width="0.5"/>
<line x1="335" y1="1165" x2="665" y2="1165" stroke="#845ef7" stroke-width="0.5"/>
<line x1="335" y1="1185" x2="665" y2="1185" stroke="#845ef7" stroke-width="0.5"/>
<line x1="335" y1="1205" x2="665" y2="1205" stroke="#845ef7" stroke-width="0.5"/>
<line x1="335" y1="1225" x2="665" y2="1225" stroke="#845ef7" stroke-width="0.5"/>
<line x1="335" y1="1245" x2="665" y2="1245" stroke="#845ef7" stroke-width="0.5"/>
<line x1="335" y1="1265" x2="665" y2="1265" stroke="#845ef7" stroke-width="0.5"/>
<line x1="335" y1="1285" x2="665" y2="1285" stroke="#845ef7" stroke-width="0.5"/>
<line x1="335" y1="1305" x2="665" y2="1305" stroke="#845ef7" stroke-width="0.5"/>
<line x1="335" y1="1325" x2="665" y2="1325" stroke="#845ef7" stroke-width="0.5"/>
<line x1="335" y1="1345" x2="665" y2="1345" stroke="#845ef7" stroke-width="0.5"/>
<line x1="335" y1="1365" x2="665" y2="1365" stroke="#845ef7" stroke-width="0.5"/>
<line x1="335" y1="1385" x2="665" y2="1385" stroke="#845ef7" stroke-width="0.5"/>
<text x="500" y="1058" font-family="Arial" font-size="10" fill="#845ef7" font-weight="bold" text-anchor="middle">铝型材散热器 350×150×50mm ~2.5kg</text>

<!-- MOSFET -->
<rect x="335" y="1095" width="50" height="28" rx="2" fill="#ffc9c9" stroke="#e03131" stroke-width="1"/><text x="360" y="1113" font-size="7" fill="#e03131" text-anchor="middle" font-family="Arial">M1</text>
<rect x="390" y="1095" width="50" height="28" rx="2" fill="#ffc9c9" stroke="#e03131" stroke-width="1"/><text x="415" y="1113" font-size="7" fill="#e03131" text-anchor="middle" font-family="Arial">M2</text>
<rect x="445" y="1095" width="50" height="28" rx="2" fill="#ffc9c9" stroke="#e03131" stroke-width="1"/><text x="470" y="1113" font-size="7" fill="#e03131" text-anchor="middle" font-family="Arial">M3</text>
<rect x="500" y="1095" width="50" height="28" rx="2" fill="#ffc9c9" stroke="#e03131" stroke-width="1"/><text x="525" y="1113" font-size="7" fill="#e03131" text-anchor="middle" font-family="Arial">M4</text>
<rect x="555" y="1095" width="50" height="28" rx="2" fill="#ffc9c9" stroke="#e03131" stroke-width="1"/><text x="580" y="1113" font-size="7" fill="#e03131" text-anchor="middle" font-family="Arial">M5</text>
<rect x="610" y="1095" width="50" height="28" rx="2" fill="#ffc9c9" stroke="#e03131" stroke-width="1"/><text x="635" y="1113" font-size="7" fill="#e03131" text-anchor="middle" font-family="Arial">M6</text>
<rect x="365" y="1130" width="50" height="28" rx="2" fill="#ffc9c9" stroke="#e03131" stroke-width="1"/><text x="390" y="1148" font-size="7" fill="#e03131" text-anchor="middle" font-family="Arial">M7</text>
<rect x="420" y="1130" width="50" height="28" rx="2" fill="#ffc9c9" stroke="#e03131" stroke-width="1"/><text x="445" y="1148" font-size="7" fill="#e03131" text-anchor="middle" font-family="Arial">M8</text>
<text x="500" y="1178" font-family="Arial" font-size="8" fill="#e03131" text-anchor="middle">8× M90N20 背靠背直贴散热器两侧 | 每侧4颗</text>

<!-- C2000主板 -->
<rect x="430" y="1195" width="240" height="100" rx="3" fill="#a5d8ff" stroke="#1c7ed6" stroke-width="1.5" opacity="0.7"/>
<text x="550" y="1220" font-family="Arial" font-size="8" fill="#1c7ed6" font-weight="bold" text-anchor="middle">C2000 主板 200×120mm 4层板</text>
<text x="550" y="1235" font-family="Arial" font-size="7" fill="#1c7ed6" text-anchor="middle">TMS320F280049 + DAC80508 + 运放 + ADC</text>
<text x="550" y="1250" font-family="Arial" font-size="7" fill="#1c7ed6" text-anchor="middle">安装在散热器上方 15mm 螺柱</text>

<!-- 反激电源 -->
<rect x="270" y="1330" width="70" height="50" rx="2" fill="#ffd8a8" stroke="#e8590c" stroke-width="1"/>
<text x="305" y="1350" font-family="Arial" font-size="7" fill="#e8590c" font-weight="bold" text-anchor="middle">反激电源</text>
<text x="305" y="1362" font-family="Arial" font-size="6" fill="#e8590c" text-anchor="middle">70×50mm</text>

<!-- ESP32 -->
<rect x="580" y="1330" width="60" height="40" rx="2" fill="#b2f2bb" stroke="#2f9e44" stroke-width="1"/>
<text x="610" y="1348" font-family="Arial" font-size="7" fill="#2f9e44" font-weight="bold" text-anchor="middle">ESP32-S3</text>
<text x="610" y="1362" font-family="Arial" font-size="6" fill="#2f9e44" text-anchor="middle">WiFi+BLE</text>

<!-- 分流器 -->
<rect x="480" y="1330" width="70" height="30" rx="2" fill="#ffec99" stroke="#e67700" stroke-width="1"/>
<text x="515" y="1348" font-family="Arial" font-size="7" fill="#e67700" font-weight="bold" text-anchor="middle">分流器</text>
<text x="515" y="1360" font-family="Arial" font-size="6" fill="#e67700" text-anchor="middle">×2 (60A/75mV)</text>

<!-- 风扇 -->
<rect x="260" y="1200" width="50" height="50" rx="4" fill="#ffd8a8" stroke="#e8590c" stroke-width="1.5" stroke-dasharray="4,2"/>
<text x="285" y="1225" font-family="Arial" font-size="7" fill="#e8590c" text-anchor="middle">风扇1</text>
<text x="285" y="1237" font-family="Arial" font-size="5" fill="#e8590c" text-anchor="middle">120mm</text>
<rect x="260" y="1265" width="50" height="50" rx="4" fill="#ffd8a8" stroke="#e8590c" stroke-width="1.5" stroke-dasharray="4,2"/>
<text x="285" y="1290" font-family="Arial" font-size="7" fill="#e8590c" text-anchor="middle">风扇2</text>
<text x="285" y="1302" font-family="Arial" font-size="5" fill="#e8590c" text-anchor="middle">120mm</text>

<path d="M 225 1250 L 255 1250" stroke="#e8590c" stroke-width="2" marker-end="url(#ah)"/>
<text x="240" y="1245" font-family="Arial" font-size="6" fill="#e8590c" text-anchor="middle">进风</text>

<text x="500" y="1410" font-family="Arial" font-size="8" fill="#495057" text-anchor="middle">风道：↓底部进风 → 散热器翅片 → 双120mm风扇抽风 → 后面板排风</text>
<text x="500" y="1424" font-family="Arial" font-size="8" fill="#495057" text-anchor="middle">重量预算：散热器2.5 + 壳体1.0 + PCB/元件0.5 + 风扇0.3 + 线缆0.7 = 约5.0kg</text>

<!-- ═══════════════════════════════════════════════════════════ -->
<!-- VIEW D: 后面板布局 (USB从前面板移至此) -->
<!-- ═══════════════════════════════════════════════════════════ -->
<rect x="995" y="545" width="1030" height="935" fill="#f8f9fa" stroke="#dee2e6" stroke-width="1" rx="0"/>
<text x="1510" y="567" font-family="Arial, sans-serif" font-size="16" fill="#212529" font-weight="bold" text-anchor="middle">D : 后面板布局 (W310 × H120mm)  — USB已移至后盖</text>

<rect x="1200" y="600" width="620" height="240" rx="6" fill="url(#frontGrad)" stroke="#1a1a1a" stroke-width="2"/>

<!-- 风扇区 -->
<rect x="1330" y="615" width="190" height="190" rx="8" fill="#2a2a2a" stroke="#444" stroke-width="1"/>
<circle cx="1425" cy="710" r="55" fill="none" stroke="#333" stroke-width="1.5"/>
<circle cx="1425" cy="710" r="33" fill="none" stroke="#333" stroke-width="1.5"/>
<circle cx="1425" cy="710" r="18" fill="#2a2a2a" stroke="#555" stroke-width="1"/>
<line x1="1388" y1="710" x2="1462" y2="710" stroke="#444" stroke-width="1"/>
<line x1="1425" y1="673" x2="1425" y2="747" stroke="#444" stroke-width="1"/>
<text x="1425" y="822" font-family="Arial" font-size="8" fill="#888" text-anchor="middle">120mm PWM 风扇1</text>

<rect x="1530" y="615" width="190" height="190" rx="8" fill="#2a2a2a" stroke="#444" stroke-width="1"/>
<circle cx="1625" cy="710" r="55" fill="none" stroke="#333" stroke-width="1.5"/>
<circle cx="1625" cy="710" r="33" fill="none" stroke="#333" stroke-width="1.5"/>
<circle cx="1625" cy="710" r="18" fill="#2a2a2a" stroke="#555" stroke-width="1"/>
<line x1="1588" y1="710" x2="1662" y2="710" stroke="#444" stroke-width="1"/>
<line x1="1625" y1="673" x2="1625" y2="747" stroke="#444" stroke-width="1"/>
<text x="1625" y="822" font-family="Arial" font-size="8" fill="#888" text-anchor="middle">120mm PWM 风扇2</text>

<!-- 左侧接口区 (含USB-C) -->
<rect x="1218" y="625" width="100" height="200" rx="4" fill="#222" stroke="#3a3a3a" stroke-width="0.5"/>

<!-- IEC AC输入 -->
<rect x="1230" y="640" width="76" height="40" rx="3" fill="#444" stroke="#666" stroke-width="0.5"/>
<rect x="1240" y="648" width="56" height="24" rx="2" fill="#333" stroke="#555" stroke-width="0.5"/>
<text x="1268" y="678" font-family="Arial" font-size="7" fill="#ccc" text-anchor="middle">IEC AC IN</text>
<rect x="1246" y="660" width="10" height="8" rx="1" fill="#555"/>
<text x="1252" y="684" font-family="Arial" font-size="5" fill="#888" text-anchor="middle">保险丝</text>

<!-- 电源开关 -->
<rect x="1230" y="690" width="76" height="24" rx="3" fill="#555" stroke="#777" stroke-width="0.5"/>
<circle cx="1248" cy="702" r="5" fill="#00ff88"/>
<text x="1270" y="706" font-family="Arial" font-size="7" fill="#ddd" text-anchor="middle" font-weight="bold">⏻ 开关</text>

<!-- USB-C (从前面板移到此) -->
<rect x="1230" y="725" width="76" height="22" rx="3" fill="#555" stroke="#777" stroke-width="0.5"/>
<rect x="1248" y="731" width="18" height="10" rx="2" fill="#333" stroke="#555" stroke-width="0.5"/>
<text x="1268" y="738" font-family="Arial" font-size="6" fill="#ccc" text-anchor="middle">USB-C</text>
<text x="1268" y="750" font-family="Arial" font-size="5" fill="#888" text-anchor="middle">调试/固件/通信</text>

<!-- SMA + PMBus -->
<rect x="1218" y="755" width="100" height="48" rx="4" fill="#222" stroke="#3a3a3a" stroke-width="0.5"/>
<rect x="1235" y="762" width="36" height="16" rx="6" fill="#555" stroke="#777" stroke-width="0.5"/>
<circle cx="1244" cy="770" r="4" fill="#444" stroke="#888" stroke-width="0.5"/>
<text x="1260" y="774" font-family="Arial" font-size="5" fill="#aaa" text-anchor="middle">SMA</text>
<rect x="1277" y="762" width="36" height="16" rx="2" fill="#555" stroke="#777" stroke-width="0.5"/>
<text x="1295" y="774" font-family="Arial" font-size="5" fill="#aaa" text-anchor="middle">PMBus</text>

<!-- 接地 -->
<circle cx="1270" cy="810" r="8" fill="#ffd43b" stroke="#f59f00" stroke-width="1.5"/>
<text x="1270" y="813" font-family="Arial" font-size="7" fill="#222" text-anchor="middle" font-weight="bold">⏚</text>

<!-- 后面板标注 -->
<text x="1510" y="870" font-family="Arial" font-size="9" fill="#495057" text-anchor="middle">接口：IEC=AC输入+保险丝 | USB-C=调试/固件/通信 | SMA=天线 | PMBus | PE接地</text>
<text x="1510" y="888" font-family="Arial" font-size="8" fill="#666" text-anchor="middle">风扇：2×120mm PWM 后排风 | 底部进风 → 散热器翅片 → 后面板排风</text>
<text x="1510" y="906" font-family="Arial" font-size="8" fill="#00a884" text-anchor="middle">★ v3 更新：USB-C 从前面板移至后盖左侧接口区</text>

<!-- 配色说明 -->
<text x="1510" y="928" font-family="Arial" font-size="9" fill="#495057" text-anchor="middle">配色方案 (ITECH风格)：</text>
<rect x="1370" y="938" width="12" height="12" rx="1" fill="#1a1a1a" stroke="#444" stroke-width="0.5"/>
<text x="1388" y="948" font-family="Arial" font-size="8" fill="#555" text-anchor="start">机身：深灰 (RAL 7021)</text>
<rect x="1550" y="938" width="12" height="12" rx="1" fill="#00a884" stroke="#008e6f" stroke-width="0.5"/>
<text x="1568" y="948" font-family="Arial" font-size="8" fill="#555" text-anchor="start">装饰条：青绿 (ITECH Teal)</text>
<rect x="1370" y="956" width="12" height="12" rx="1" fill="#e74c3c" stroke="#c0392b" stroke-width="0.5"/>
<text x="1388" y="966" font-family="Arial" font-size="8" fill="#555" text-anchor="start">正极端子：红色</text>
<rect x="1550" y="956" width="12" height="12" rx="1" fill="#3498db" stroke="#2980b9" stroke-width="0.5"/>
<text x="1568" y="966" font-family="Arial" font-size="8" fill="#555" text-anchor="start">负极端子：蓝色</text>

<!-- v3 变更总结 -->
<text x="1510" y="1000" font-family="Arial" font-size="9" fill="#495057" font-weight="bold" text-anchor="middle">v3 变更记录：</text>
<text x="1510" y="1015" font-family="Arial" font-size="8" fill="#555" text-anchor="middle">1. 屏幕改为全宽布局 (参照ITECH 8500) | 2. 编码器移至屏幕右上角</text>
<text x="1510" y="1030" font-family="Arial" font-size="8" fill="#555" text-anchor="middle">3. 输入端子移至右侧，与按键同层 | 4. 左侧新增独立电源开关 (旋转式)</text>
<text x="1510" y="1045" font-family="Arial" font-size="8" fill="#555" text-anchor="middle">5. On/Off 改为导航区小按钮 (青绿保留) | 6. USB-C 移至后盖左侧接口区</text>

<!-- Footer -->
<line x1="20" y1="1460" x2="2020" y2="1460" stroke="#dee2e6" stroke-width="1"/>
<text x="20" y="1480" font-family="Arial, sans-serif" font-size="11" fill="#adb5bd">SYS-ARCH-006-S2 v3 — ITECH 风格工业设计 — 方案B-v3 (参照ITECH 8500布局)</text>
<text x="2020" y="1480" font-family="Arial, sans-serif" font-size="11" fill="#adb5bd" text-anchor="end">Rev B-v3 — 全宽屏幕 + 右上编码器 + 右侧端子</text>
</svg>
