<?xml version="1.0" encoding="UTF-8"?>
<svg width="2040" height="1500" viewBox="0 0 2040 1500"
     xmlns="http://www.w3.org/2000/svg"
     style="background:#fff; font-family:Arial, Helvetica, sans-serif;">
<defs>
  <marker id="ah" markerWidth="10" markerHeight="7" refX="10" refY="3.5" orient="auto">
    <polygon points="0 0,10 3.5,0 7" fill="#495057"/>
  </marker>
  <!-- ITECH Brand Colors -->
  <linearGradient id="frontGrad" x1="0%" y1="0%" x2="0%" y2="100%">
    <stop offset="0%" style="stop-color:#2b2b2b"/>
    <stop offset="100%" style="stop-color:#1a1a1a"/>
  </linearGradient>
  <linearGradient id="screenGrad" x1="0%" y1="0%" x2="0%" y2="100%">
    <stop offset="0%" style="stop-color:#0a1628"/>
    <stop offset="100%" style="stop-color:#0f1f3a"/>
  </linearGradient>
  <linearGradient id="accentGrad" x1="0%" y1="0%" x2="100%" y2="100%">
    <stop offset="0%" style="stop-color:#00a884"/>
    <stop offset="100%" style="stop-color:#008e6f"/>
  </linearGradient>
</defs>

<!-- Title bar -->
<rect x="20" y="20" width="2000" height="1" fill="#dee2e6"/>
<text x="20" y="44" font-family="Arial, Helvetica, sans-serif" font-size="14" fill="#868e96">
文档：SYS-ARCH-006-S2 v1 | 方案 B — ITECH 风格工业设计 | 2026-05-28 | 比例 2px:mm</text>
<text x="1510" y="44" font-family="Arial, Helvetica, sans-serif" font-size="14" fill="#00a884" font-weight="bold">
★ ITECH 设计语言：深灰机身 + 青绿品牌色点缀 + 分区式前面板 + 4.3" IPS 竖屏显示</text>
<line x1="20" y1="50" x2="2020" y2="50" stroke="#dee2e6" stroke-width="1"/>

<!-- ============================================================ -->
<!-- VIEW A: 整机外观效果图 (右侧45°轴测) -->
<!-- ============================================================ -->
<rect x="20" y="55" width="960" height="480" fill="#f8f9fa" stroke="#dee2e6" stroke-width="1" rx="0"/>
<text x="500" y="77" font-family="Arial, Helvetica, sans-serif" font-size="16" fill="#212529" font-weight="bold" text-anchor="middle">A : 整机外观效果  (45° 轴测)</text>

<!-- 整体外壳 - 轴测图 -->
<!-- 主面 - 前面板 -->
<polygon points="280,400 280,180 700,180 700,400" fill="#2b2b2b" stroke="#1a1a1a" stroke-width="1.5"/>
<!-- 顶面 -->
<polygon points="280,180 700,180 820,130 400,130" fill="#3a3a3a" stroke="#2a2a2a" stroke-width="1.5"/>
<!-- 右侧面 -->
<polygon points="700,180 700,400 820,350 820,130" fill="#222" stroke="#1a1a1a" stroke-width="1.5"/>

<!-- 品牌色装饰条 - 前面板顶部 -->
<polygon points="280,180 700,180 700,192 280,192" fill="url(#accentGrad)"/>

<!-- 前面板 - 屏幕区域 -->
<rect x="320" y="210" width="180" height="120" rx="4" fill="url(#screenGrad)" stroke="#444" stroke-width="1.5"/>
<text x="410" y="262" font-family="Arial, Helvetica, sans-serif" font-size="11" fill="#00ff88" font-weight="bold" text-anchor="middle">1000W</text>
<text x="410" y="280" font-family="Arial, Helvetica, sans-serif" font-size="8" fill="#6f9" text-anchor="middle">电子负载</text>
<text x="410" y="298" font-family="Arial, Helvetica, sans-serif" font-size="6" fill="#4a8" text-anchor="middle">CV 24.000V  CC 10.000A</text>
<!-- 屏幕模拟边框 -->
<rect x="318" y="208" width="184" height="124" rx="5" fill="none" stroke="#00a884" stroke-width="1"/>

<!-- 前面板 - 右侧功能按键区 -->
<rect x="520" y="210" width="60" height="120" rx="3" fill="#333" stroke="#555" stroke-width="0.5"/>
<!-- 按键 3x4 排列 -->
<rect x="528" y="218" width="18" height="12" rx="2" fill="#444" stroke="#666" stroke-width="0.5"/><text x="537" y="227" font-size="6" fill="#ccc" text-anchor="middle" font-family="Arial">Menu</text>
<rect x="550" y="218" width="18" height="12" rx="2" fill="#444" stroke="#666" stroke-width="0.5"/><text x="559" y="227" font-size="6" fill="#ccc" text-anchor="middle" font-family="Arial">Esc</text>
<rect x="572" y="218" width="18" height="12" rx="2" fill="#444" stroke="#666" stroke-width="0.5"/><text x="581" y="227" font-size="6" fill="#ccc" text-anchor="middle" font-family="Arial">▼</text>
<rect x="528" y="236" width="18" height="12" rx="2" fill="#444" stroke="#666" stroke-width="0.5"/><text x="537" y="245" font-size="6" fill="#ccc" text-anchor="middle" font-family="Arial">▲</text>
<rect x="550" y="236" width="18" height="12" rx="2" fill="#444" stroke="#666" stroke-width="0.5"/><text x="559" y="245" font-size="6" fill="#ccc" text-anchor="middle" font-family="Arial">◄</text>
<rect x="572" y="236" width="18" height="12" rx="2" fill="#444" stroke="#666" stroke-width="0.5"/><text x="581" y="245" font-size="6" fill="#ccc" text-anchor="middle" font-family="Arial">►</text>
<rect x="528" y="254" width="18" height="12" rx="2" fill="#444" stroke="#666" stroke-width="0.5"/><text x="537" y="263" font-size="6" fill="#ccc" text-anchor="middle" font-family="Arial">Shift</text>
<rect x="550" y="254" width="18" height="12" rx="2" fill="#444" stroke="#666" stroke-width="0.5"/><text x="559" y="263" font-size="6" fill="#ccc" text-anchor="middle" font-family="Arial">Config</text>
<rect x="572" y="254" width="18" height="12" rx="2" fill="#444" stroke="#666" stroke-width="0.5"/><text x="581" y="263" font-size="6" fill="#ccc" text-anchor="middle" font-family="Arial">On/Off</text>

<!-- 前面板 - 数字键盘区 -->
<rect x="520" y="340" width="90" height="85" rx="3" fill="#333" stroke="#555" stroke-width="0.5"/>
<rect x="526" y="346" width="20" height="15" rx="2" fill="#444" stroke="#666" stroke-width="0.5"/><text x="536" y="357" font-size="7" fill="#eee" text-anchor="middle" font-family="Arial">7</text>
<rect x="550" y="346" width="20" height="15" rx="2" fill="#444" stroke="#666" stroke-width="0.5"/><text x="560" y="357" font-size="7" fill="#eee" text-anchor="middle" font-family="Arial">8</text>
<rect x="574" y="346" width="20" height="15" rx="2" fill="#444" stroke="#666" stroke-width="0.5"/><text x="584" y="357" font-size="7" fill="#eee" text-anchor="middle" font-family="Arial">9</text>
<rect x="526" y="365" width="20" height="15" rx="2" fill="#444" stroke="#666" stroke-width="0.5"/><text x="536" y="376" font-size="7" fill="#eee" text-anchor="middle" font-family="Arial">4</text>
<rect x="550" y="365" width="20" height="15" rx="2" fill="#444" stroke="#666" stroke-width="0.5"/><text x="560" y="376" font-size="7" fill="#eee" text-anchor="middle" font-family="Arial">5</text>
<rect x="574" y="365" width="20" height="15" rx="2" fill="#444" stroke="#666" stroke-width="0.5"/><text x="584" y="376" font-size="7" fill="#eee" text-anchor="middle" font-family="Arial">6</text>
<rect x="526" y="384" width="20" height="15" rx="2" fill="#444" stroke="#666" stroke-width="0.5"/><text x="536" y="395" font-size="7" fill="#eee" text-anchor="middle" font-family="Arial">1</text>
<rect x="550" y="384" width="20" height="15" rx="2" fill="#444" stroke="#666" stroke-width="0.5"/><text x="560" y="395" font-size="7" fill="#eee" text-anchor="middle" font-family="Arial">2</text>
<rect x="574" y="384" width="20" height="15" rx="2" fill="#444" stroke="#666" stroke-width="0.5"/><text x="584" y="395" font-size="7" fill="#eee" text-anchor="middle" font-family="Arial">3</text>
<rect x="526" y="403" width="20" height="15" rx="2" fill="#444" stroke="#666" stroke-width="0.5"/><text x="536" y="414" font-size="7" fill="#eee" text-anchor="middle" font-family="Arial">0</text>
<rect x="550" y="403" width="20" height="15" rx="2" fill="#444" stroke="#666" stroke-width="0.5"/><text x="560" y="414" font-size="7" fill="#eee" text-anchor="middle" font-family="Arial">.</text>
<rect x="574" y="403" width="20" height="15" rx="2" fill="#00a884" stroke="#008e6f" stroke-width="0.5"/><text x="584" y="414" font-size="7" fill="#fff" text-anchor="middle" font-family="Arial">-</text>

<!-- 编码器旋钮 -->
<circle cx="480" cy="380" r="22" fill="#3a3a3a" stroke="#555" stroke-width="2"/>
<circle cx="480" cy="380" r="14" fill="#444" stroke="#666" stroke-width="1.5"/>
<circle cx="480" cy="380" r="5" fill="#00a884" stroke="#008e6f" stroke-width="1"/>
<text x="480" y="415" font-family="Arial" font-size="7" fill="#999" text-anchor="middle">编码器</text>

<!-- 电源按钮 -->
<circle cx="310" cy="380" r="12" fill="#444" stroke="#666" stroke-width="1.5"/>
<circle cx="310" cy="380" r="8" fill="#555" stroke="#777" stroke-width="0.5"/>
<text x="310" y="400" font-family="Arial" font-size="6" fill="#999" text-anchor="middle">电源</text>
<!-- 电源LED -->
<circle cx="310" cy="405" r="2" fill="#00ff88"/>

<!-- 输入端子 -->
<rect x="290" y="310" width="300" height="20" rx="2" fill="none" stroke="#555" stroke-width="0.5" stroke-dasharray="2,2"/>
<text x="290" y="308" font-family="Arial" font-size="6" fill="#666">输入端子区</text>

<rect x="296" y="320" width="36" height="18" rx="3" fill="#e74c3c" stroke="#c0392b" stroke-width="1"/><text x="314" y="333" font-size="7" fill="#fff" text-anchor="middle" font-family="Arial" font-weight="bold">DC+</text>
<rect x="342" y="320" width="36" height="18" rx="3" fill="#3498db" stroke="#2980b9" stroke-width="1"/><text x="360" y="333" font-size="7" fill="#fff" text-anchor="middle" font-family="Arial" font-weight="bold">DC−</text>
<rect x="388" y="320" width="28" height="18" rx="3" fill="#555" stroke="#777" stroke-width="0.5"/><text x="402" y="333" font-size="6" fill="#ccc" text-anchor="middle" font-family="Arial">S+</text>
<rect x="420" y="320" width="28" height="18" rx="3" fill="#555" stroke="#777" stroke-width="0.5"/><text x="434" y="333" font-size="6" fill="#ccc" text-anchor="middle" font-family="Arial">S−</text>

<!-- USB端口 -->
<rect x="610" y="320" width="50" height="18" rx="2" fill="#444" stroke="#666" stroke-width="0.5"/>
<rect x="615" y="325" width="14" height="8" rx="1" fill="#333" stroke="#555" stroke-width="0.5"/>
<text x="635" y="333" font-size="5" fill="#999" text-anchor="middle" font-family="Arial">USB</text>

<!-- ITECH Logo位置 -->
<text x="410" y="200" font-family="Arial, Helvetica, sans-serif" font-size="7" fill="#00a884" font-weight="bold" text-anchor="middle">NRS 1000W</text>

<!-- 脚垫示意 -->
<rect x="285" y="430" width="20" height="6" rx="2" fill="#333" stroke="none"/>
<rect x="690" y="430" width="20" height="6" rx="2" fill="#333" stroke="none"/>

<!-- 把手 -->
<path d="M 700 160 Q 740 140 740 200" fill="none" stroke="#555" stroke-width="3" stroke-linecap="round"/>
<!-- 顶部散热格栅 -->
<rect x="305" y="158" width="8" height="15" rx="1" fill="#333" stroke="none"/>
<rect x="320" y="158" width="8" height="15" rx="1" fill="#333" stroke="none"/>
<rect x="335" y="158" width="8" height="15" rx="1" fill="#333" stroke="none"/>
<rect x="350" y="158" width="8" height="15" rx="1" fill="#333" stroke="none"/>
<rect x="365" y="158" width="8" height="15" rx="1" fill="#333" stroke="none"/>

<!-- 标注 -->
<text x="410" y="450" font-family="Arial" font-size="9" fill="#495057" text-anchor="middle">整机尺寸：W310 × D370 × H120mm  |  铝前面板 5mm (RAL 7021)  |  青绿色装饰条</text>
<text x="410" y="465" font-family="Arial" font-size="9" fill="#495057" text-anchor="middle">SPCC 1.5mm 壳体  |  黑色橡胶脚垫 x4  |  不锈钢把手</text>

<!-- ============================================================ -->
<!-- VIEW B: 前面板正视图 -->
<!-- ============================================================ -->
<rect x="20" y="545" width="960" height="430" fill="#f8f9fa" stroke="#dee2e6" stroke-width="1" rx="0"/>
<text x="500" y="567" font-family="Arial, Helvetica, sans-serif" font-size="16" fill="#212529" font-weight="bold" text-anchor="middle">B : 前面板正视图  (W310 × H120mm)</text>

<!-- 前面板主体 -->
<rect x="195" y="580" width="610" height="240" rx="6" fill="url(#frontGrad)" stroke="#1a1a1a" stroke-width="2"/>
<!-- 品牌色装饰条 - 顶部 -->
<rect x="195" y="580" width="610" height="8" rx="3" fill="url(#accentGrad)"/>
<!-- 内侧细边 -->
<rect x="197" y="586" width="606" height="1" fill="#00a884" opacity="0.5"/>

<!-- 品牌标识 -->
<text x="500" y="602" font-family="Arial, Helvetica, sans-serif" font-size="8" fill="#00a884" font-weight="bold" text-anchor="middle">NRS 1000W 可编程直流电子负载</text>

<!-- 屏幕区域 -->
<rect x="220" y="615" width="240" height="160" rx="4" fill="#222" stroke="#444" stroke-width="1"/>
<rect x="225" y="620" width="230" height="150" rx="2" fill="url(#screenGrad)" stroke="#333" stroke-width="0.5"/>
<!-- 屏幕内容模拟 -->
<text x="340" y="650" font-family="monospace" font-size="22" fill="#00ff88" font-weight="bold" text-anchor="middle">24.000 V</text>
<text x="340" y="678" font-family="monospace" font-size="22" fill="#ffaa00" font-weight="bold" text-anchor="middle">10.000 A</text>
<line x1="240" y1="690" x2="440" y2="690" stroke="#444" stroke-width="0.5"/>
<text x="260" y="708" font-family="monospace" font-size="9" fill="#888">CC Mode</text>
<text x="360" y="708" font-family="monospace" font-size="9" fill="#888">1000.0 W</text>
<text x="260" y="724" font-family="monospace" font-size="8" fill="#666">V-Set: 24.000</text>
<text x="360" y="724" font-family="monospace" font-size="8" fill="#666">I-Set: 10.000</text>
<text x="260" y="738" font-family="monospace" font-size="8" fill="#666">Min: 0.000V</text>
<text x="360" y="738" font-family="monospace" font-size="8" fill="#666">Max: 150.0V</text>
<text x="260" y="752" font-family="monospace" font-size="7" fill="#555">Time: 00:12:34</text>
<text x="400" y="752" font-family="monospace" font-size="7" fill="#555">Ahr: 1.234</text>
<!-- 屏幕边框装饰 -->
<rect x="219" y="614" width="242" height="162" rx="5" fill="none" stroke="#00a884" stroke-width="1" opacity="0.3"/>

<!-- 功能区 - 模式按键 -->
<rect x="475" y="615" width="150" height="160" rx="3" fill="#2a2a2a" stroke="#3a3a3a" stroke-width="0.5"/>
<text x="550" y="627" font-family="Arial" font-size="6" fill="#888" text-anchor="middle">功能键</text>

<!-- 模式按钮 - 3行2列 -->
<rect x="482" y="634" width="65" height="22" rx="3" fill="#333" stroke="#555" stroke-width="0.5"/><text x="514" y="650" font-size="8" fill="#ddd" text-anchor="middle" font-family="Arial">CV</text>
<rect x="553" y="634" width="65" height="22" rx="3" fill="#333" stroke="#555" stroke-width="0.5"/><text x="585" y="650" font-size="8" fill="#ddd" text-anchor="middle" font-family="Arial">CC</text>
<rect x="482" y="660" width="65" height="22" rx="3" fill="#333" stroke="#555" stroke-width="0.5"/><text x="514" y="676" font-size="8" fill="#ddd" text-anchor="middle" font-family="Arial">CW</text>
<rect x="553" y="660" width="65" height="22" rx="3" fill="#333" stroke="#555" stroke-width="0.5"/><text x="585" y="676" font-size="8" fill="#ddd" text-anchor="middle" font-family="Arial">CR</text>
<rect x="482" y="686" width="65" height="22" rx="3" fill="#333" stroke="#555" stroke-width="0.5"/><text x="514" y="702" font-size="8" fill="#ddd" text-anchor="middle" font-family="Arial">LED</text>
<rect x="553" y="686" width="65" height="22" rx="3" fill="#333" stroke="#555" stroke-width="0.5"/><text x="585" y="702" font-size="8" fill="#ddd" text-anchor="middle" font-family="Arial">BAT</text>
<rect x="482" y="712" width="65" height="22" rx="3" fill="#333" stroke="#555" stroke-width="0.5"/><text x="514" y="728" font-size="8" fill="#ddd" text-anchor="middle" font-family="Arial">DYN</text>
<rect x="553" y="712" width="65" height="22" rx="3" fill="#333" stroke="#555" stroke-width="0.5"/><text x="585" y="728" font-size="8" fill="#ddd" text-anchor="middle" font-family="Arial">OCP</text>

<!-- On/Off 按键 -->
<rect x="482" y="740" width="136" height="28" rx="4" fill="#00a884" stroke="#008e6f" stroke-width="1"/>
<text x="550" y="759" font-family="Arial" font-size="11" fill="#fff" font-weight="bold" text-anchor="middle">On / Off</text>

<!-- 下排 - 数字键盘 + 编码器 + 端子 -->
<rect x="220" y="785" width="160" height="35" rx="3" fill="#2a2a2a" stroke="#3a3a3a" stroke-width="0.5"/>
<text x="227" y="793" font-family="Arial" font-size="5" fill="#777">数字键</text>
<rect x="226" y="797" width="16" height="12" rx="2" fill="#444" stroke="#666" stroke-width="0.5"/><text x="234" y="806" font-size="6" fill="#eee" text-anchor="middle" font-family="Arial">7</text>
<rect x="244" y="797" width="16" height="12" rx="2" fill="#444" stroke="#666" stroke-width="0.5"/><text x="252" y="806" font-size="6" fill="#eee" text-anchor="middle" font-family="Arial">8</text>
<rect x="262" y="797" width="16" height="12" rx="2" fill="#444" stroke="#666" stroke-width="0.5"/><text x="270" y="806" font-size="6" fill="#eee" text-anchor="middle" font-family="Arial">9</text>
<rect x="280" y="797" width="16" height="12" rx="2" fill="#00a884" stroke="#008e6f" stroke-width="0.5"/><text x="288" y="806" font-size="7" fill="#fff" text-anchor="middle" font-family="Arial" font-weight="bold">ESC</text>
<rect x="226" y="811" width="16" height="12" rx="2" fill="#444" stroke="#666" stroke-width="0.5"/><text x="234" y="820" font-size="6" fill="#eee" text-anchor="middle" font-family="Arial">4</text>
<rect x="244" y="811" width="16" height="12" rx="2" fill="#444" stroke="#666" stroke-width="0.5"/><text x="252" y="820" font-size="6" fill="#eee" text-anchor="middle" font-family="Arial">5</text>
<rect x="262" y="811" width="16" height="12" rx="2" fill="#444" stroke="#666" stroke-width="0.5"/><text x="270" y="820" font-size="6" fill="#eee" text-anchor="middle" font-family="Arial">6</text>
<rect x="280" y="811" width="16" height="12" rx="2" fill="#444" stroke="#666" stroke-width="0.5"/><text x="288" y="820" font-size="6" fill="#eee" text-anchor="middle" font-family="Arial">Clr</text>

<rect x="226" y="825" width="16" height="12" rx="2" fill="#444" stroke="#666" stroke-width="0.5"/><text x="234" y="834" font-size="6" fill="#eee" text-anchor="middle" font-family="Arial">1</text>
<rect x="244" y="825" width="16" height="12" rx="2" fill="#444" stroke="#666" stroke-width="0.5"/><text x="252" y="834" font-size="6" fill="#eee" text-anchor="middle" font-family="Arial">2</text>
<rect x="262" y="825" width="16" height="12" rx="2" fill="#444" stroke="#666" stroke-width="0.5"/><text x="270" y="834" font-size="6" fill="#eee" text-anchor="middle" font-family="Arial">3</text>
<rect x="280" y="825" width="16" height="12" rx="2" fill="#00a884" stroke="#008e6f" stroke-width="0.5"/><text x="288" y="834" font-size="7" fill="#fff" text-anchor="middle" font-family="Arial" font-weight="bold">ENT</text>

<rect x="226" y="839" width="16" height="12" rx="2" fill="#444" stroke="#666" stroke-width="0.5"/><text x="234" y="848" font-size="6" fill="#eee" text-anchor="middle" font-family="Arial">+/−</text>
<rect x="244" y="839" width="16" height="12" rx="2" fill="#444" stroke="#666" stroke-width="0.5"/><text x="252" y="848" font-size="6" fill="#eee" text-anchor="middle" font-family="Arial">0</text>
<rect x="262" y="839" width="16" height="12" rx="2" fill="#444" stroke="#666" stroke-width="0.5"/><text x="270" y="848" font-size="6" fill="#eee" text-anchor="middle" font-family="Arial">.</text>
<rect x="280" y="839" width="16" height="12" rx="2" fill="#e74c3c" stroke="#c0392b" stroke-width="0.5"/><text x="288" y="848" font-size="7" fill="#fff" text-anchor="middle" font-family="Arial" font-weight="bold">LOC</text>

<!-- 方向键区 -->
<rect x="300" y="793" width="50" height="35" rx="3" fill="#2a2a2a" stroke="#3a3a3a" stroke-width="0.5"/>
<text x="312" y="801" font-family="Arial" font-size="5" fill="#777" text-anchor="middle">导航</text>
<rect x="302" y="804" width="14" height="10" rx="2" fill="#444" stroke="#666" stroke-width="0.5"/><text x="309" y="812" font-size="5" fill="#ddd" text-anchor="middle" font-family="Arial">▲</text>
<rect x="318" y="804" width="14" height="10" rx="2" fill="#444" stroke="#666" stroke-width="0.5"/><text x="325" y="812" font-size="5" fill="#ddd" text-anchor="middle" font-family="Arial">▼</text>
<rect x="334" y="804" width="14" height="10" rx="2" fill="#444" stroke="#666" stroke-width="0.5"/><text x="341" y="812" font-size="5" fill="#ddd" text-anchor="middle" font-family="Arial">◄</text>
<rect x="302" y="816" width="14" height="10" rx="2" fill="#444" stroke="#666" stroke-width="0.5"/><text x="309" y="824" font-size="5" fill="#ddd" text-anchor="middle" font-family="Arial">►</text>
<rect x="318" y="816" width="14" height="10" rx="2" fill="#00a884" stroke="#008e6f" stroke-width="0.5"/><text x="325" y="824" font-size="5" fill="#fff" text-anchor="middle" font-family="Arial">OK</text>

<!-- 编码器 -->
<circle cx="395" cy="805" r="14" fill="#3a3a3a" stroke="#555" stroke-width="1.5"/>
<circle cx="395" cy="805" r="9" fill="#444" stroke="#666" stroke-width="1"/>
<circle cx="395" cy="805" r="3" fill="#00a884" stroke="#008e6f" stroke-width="0.5"/>
<text x="395" y="826" font-family="Arial" font-size="5" fill="#888" text-anchor="middle">编码器</text>

<!-- 输入端子 - 右侧 -->
<rect x="470" y="790" width="170" height="32" rx="3" fill="#2a2a2a" stroke="#3a3a3a" stroke-width="0.5"/>
<text x="555" y="799" font-family="Arial" font-size="6" fill="#777" text-anchor="middle">输入端子</text>

<rect x="478" y="805" width="50" height="14" rx="4" fill="#e74c3c" stroke="#c0392b" stroke-width="1"/>
<text x="503" y="815" font-size="8" fill="#fff" text-anchor="middle" font-family="Arial" font-weight="bold">DC +</text>

<rect x="532" y="805" width="50" height="14" rx="4" fill="#3498db" stroke="#2980b9" stroke-width="1"/>
<text x="557" y="815" font-size="8" fill="#fff" text-anchor="middle" font-family="Arial" font-weight="bold">DC −</text>

<rect x="586" y="805" width="22" height="14" rx="3" fill="#444" stroke="#666" stroke-width="0.5"/>
<text x="597" y="815" font-size="6" fill="#ccc" text-anchor="middle" font-family="Arial">S+</text>

<rect x="612" y="805" width="22" height="14" rx="3" fill="#444" stroke="#666" stroke-width="0.5"/>
<text x="623" y="815" font-size="6" fill="#ccc" text-anchor="middle" font-family="Arial">S−</text>

<!-- 前面板尺寸标注 -->
<line x1="195" y1="830" x2="805" y2="830" stroke="#ff0000" stroke-width="1" stroke-dasharray="3,2"/>
<line x1="195" y1="835" x2="195" y2="845" stroke="#ff0000" stroke-width="1"/>
<line x1="805" y1="835" x2="805" y2="845" stroke="#ff0000" stroke-width="1"/>
<text x="500" y="855" font-family="Arial" font-size="9" fill="#e03131" font-weight="bold" text-anchor="middle">310 mm</text>

<line x1="190" y1="580" x2="190" y2="820" stroke="#ff0000" stroke-width="1" stroke-dasharray="3,2"/>
<line x1="183" y1="580" x2="193" y2="580" stroke="#ff0000" stroke-width="1"/>
<line x1="183" y1="820" x2="193" y2="820" stroke="#ff0000" stroke-width="1"/>
<text x="178" y="705" font-family="Arial" font-size="9" fill="#e03131" font-weight="bold" text-anchor="middle" transform="rotate(-90,178,705)">120 mm</text>

<!-- 面板分区标注 -->
<line x1="220" y1="860" x2="220" y2="870" stroke="#00a884" stroke-width="1"/>
<line x1="460" y1="860" x2="460" y2="870" stroke="#00a884" stroke-width="1"/>
<line x1="475" y1="860" x2="475" y2="870" stroke="#00a884" stroke-width="1"/>
<line x1="625" y1="860" x2="625" y2="870" stroke="#00a884" stroke-width="1"/>
<text x="340" y="882" font-family="Arial" font-size="7" fill="#00a884" text-anchor="middle">① 显示区</text>
<text x="550" y="882" font-family="Arial" font-size="7" fill="#00a884" text-anchor="middle">② 模式功能键区</text>
<text x="340" y="895" font-family="Arial" font-size="7" fill="#888" text-anchor="middle">4.3" IPS 800×480</text>
<text x="550" y="895" font-family="Arial" font-size="7" fill="#888" text-anchor="middle">CV/CC/CW/CR/LED/BAT/DYN/OCP</text>
<text x="340" y="908" font-family="Arial" font-size="7" fill="#00a884" text-anchor="middle">③ 数字键+导航+编码器+端子</text>
<text x="550" y="908" font-family="Arial" font-size="7" fill="#888" text-anchor="middle">④ On/Off 启动按钮</text>

<!-- ============================================================ -->
<!-- VIEW C: 顶部/内部俯视图 -->
<!-- ============================================================ -->
<rect x="20" y="990" width="960" height="490" fill="#f8f9fa" stroke="#dee2e6" stroke-width="1" rx="0"/>
<text x="500" y="1012" font-family="Arial, Helvetica, sans-serif" font-size="16" fill="#212529" font-weight="bold" text-anchor="middle">C : 内部俯视图  (W310 × D370mm)</text>

<!-- 外壳 -->
<rect x="190" y="1030" width="620" height="420" rx="6" fill="#1a1a1a" stroke="#222" stroke-width="2"/>
<rect x="200" y="1040" width="600" height="400" rx="4" fill="#f1f3f5" stroke="#dee2e6" stroke-width="1"/>

<!-- 散热器 150×350mm -->
<rect x="325" y="1070" width="350" height="340" rx="2" fill="#d0bfff" stroke="#845ef7" stroke-width="2"/>
<line x1="335" y1="1085" x2="665" y2="1085" stroke="#845ef7" stroke-width="0.5"/>
<line x1="335" y1="1105" x2="665" y2="1105" stroke="#845ef7" stroke-width="0.5"/>
<line x1="335" y1="1125" x2="665" y2="1125" stroke="#845ef7" stroke-width="0.5"/>
<line x1="335" y1="1145" x2="665" y2="1145" stroke="#845ef7" stroke-width="0.5"/>
<line x1="335" y1="1165" x2="665" y2="1165" stroke="#845ef7" stroke-width="0.5"/>
<line x1="335" y1="1185" x2="665" y2="1185" stroke="#845ef7" stroke-width="0.5"/>
<line x1="335" y1="1205" x2="665" y2="1205" stroke="#845ef7" stroke-width="0.5"/>
<line x1="335" y1="1225" x2="665" y2="1225" stroke="#845ef7" stroke-width="0.5"/>
<line x1="335" y1="1245" x2="665" y2="1245" stroke="#845ef7" stroke-width="0.5"/>
<line x1="335" y1="1265" x2="665" y2="1265" stroke="#845ef7" stroke-width="0.5"/>
<line x1="335" y1="1285" x2="665" y2="1285" stroke="#845ef7" stroke-width="0.5"/>
<line x1="335" y1="1305" x2="665" y2="1305" stroke="#845ef7" stroke-width="0.5"/>
<line x1="335" y1="1325" x2="665" y2="1325" stroke="#845ef7" stroke-width="0.5"/>
<line x1="335" y1="1345" x2="665" y2="1345" stroke="#845ef7" stroke-width="0.5"/>
<line x1="335" y1="1365" x2="665" y2="1365" stroke="#845ef7" stroke-width="0.5"/>
<line x1="335" y1="1385" x2="665" y2="1385" stroke="#845ef7" stroke-width="0.5"/>
<text x="500" y="1058" font-family="Arial" font-size="10" fill="#845ef7" font-weight="bold" text-anchor="middle">铝型材散热器  350×150×50mm  ~2.5kg</text>

<!-- MOSFET 8颗 背靠背排列 -->
<rect x="335" y="1095" width="50" height="28" rx="2" fill="#ffc9c9" stroke="#e03131" stroke-width="1"/><text x="360" y="1113" font-size="7" fill="#e03131" text-anchor="middle" font-family="Arial">M1</text>
<rect x="390" y="1095" width="50" height="28" rx="2" fill="#ffc9c9" stroke="#e03131" stroke-width="1"/><text x="415" y="1113" font-size="7" fill="#e03131" text-anchor="middle" font-family="Arial">M2</text>
<rect x="445" y="1095" width="50" height="28" rx="2" fill="#ffc9c9" stroke="#e03131" stroke-width="1"/><text x="470" y="1113" font-size="7" fill="#e03131" text-anchor="middle" font-family="Arial">M3</text>
<rect x="500" y="1095" width="50" height="28" rx="2" fill="#ffc9c9" stroke="#e03131" stroke-width="1"/><text x="525" y="1113" font-size="7" fill="#e03131" text-anchor="middle" font-family="Arial">M4</text>
<rect x="555" y="1095" width="50" height="28" rx="2" fill="#ffc9c9" stroke="#e03131" stroke-width="1"/><text x="580" y="1113" font-size="7" fill="#e03131" text-anchor="middle" font-family="Arial">M5</text>
<rect x="610" y="1095" width="50" height="28" rx="2" fill="#ffc9c9" stroke="#e03131" stroke-width="1"/><text x="635" y="1113" font-size="7" fill="#e03131" text-anchor="middle" font-family="Arial">M6</text>
<rect x="365" y="1130" width="50" height="28" rx="2" fill="#ffc9c9" stroke="#e03131" stroke-width="1"/><text x="390" y="1148" font-size="7" fill="#e03131" text-anchor="middle" font-family="Arial">M7</text>
<rect x="420" y="1130" width="50" height="28" rx="2" fill="#ffc9c9" stroke="#e03131" stroke-width="1"/><text x="445" y="1148" font-size="7" fill="#e03131" text-anchor="middle" font-family="Arial">M8</text>

<text x="500" y="1178" font-family="Arial" font-size="8" fill="#e03131" text-anchor="middle">8× M90N20 背靠背直贴散热器两侧  |  每侧4颗</text>

<!-- C2000 主板 200×120mm -->
<rect x="430" y="1195" width="240" height="100" rx="3" fill="#a5d8ff" stroke="#1c7ed6" stroke-width="1.5" opacity="0.7"/>
<text x="550" y="1220" font-family="Arial" font-size="8" fill="#1c7ed6" font-weight="bold" text-anchor="middle">C2000 主板  200×120mm  4层板</text>
<text x="550" y="1235" font-family="Arial" font-size="7" fill="#1c7ed6" text-anchor="middle">TMS320F280049 + DAC80508 + 运放 + ADC</text>
<text x="550" y="1250" font-family="Arial" font-size="7" fill="#1c7ed6" text-anchor="middle">安装在散热器上方 15mm 螺柱</text>
<text x="550" y="1265" font-family="Arial" font-size="7" fill="#1c7ed6" text-anchor="middle">前→后：数字隔离 | 模拟前端 | MCU | 电源管理</text>

<!-- 反激电源 70×50mm -->
<rect x="270" y="1330" width="70" height="50" rx="2" fill="#ffd8a8" stroke="#e8590c" stroke-width="1"/>
<text x="305" y="1350" font-family="Arial" font-size="7" fill="#e8590c" font-weight="bold" text-anchor="middle">反激电源</text>
<text x="305" y="1362" font-family="Arial" font-size="6" fill="#e8590c" text-anchor="middle">70×50mm</text>
<!-- 变压器示意 -->
<rect x="285" y="1368" width="40" height="8" rx="2" fill="#e8590c" opacity="0.3"/>
<text x="305" y="1374" font-size="5" fill="#e8590c" text-anchor="middle" font-family="Arial">变压器</text>

<!-- ESP32-S3 -->
<rect x="580" y="1330" width="60" height="40" rx="2" fill="#b2f2bb" stroke="#2f9e44" stroke-width="1"/>
<text x="610" y="1348" font-family="Arial" font-size="7" fill="#2f9e44" font-weight="bold" text-anchor="middle">ESP32-S3</text>
<text x="610" y="1362" font-family="Arial" font-size="6" fill="#2f9e44" text-anchor="middle">WiFi+BLE</text>

<!-- 分流器 -->
<rect x="480" y="1330" width="70" height="30" rx="2" fill="#ffec99" stroke="#e67700" stroke-width="1"/>
<text x="515" y="1348" font-family="Arial" font-size="7" fill="#e67700" font-weight="bold" text-anchor="middle">分流器</text>
<text x="515" y="1360" font-family="Arial" font-size="6" fill="#e67700" text-anchor="middle">×2 (60A/75mV)</text>

<!-- 风扇位置（俯视） -->
<rect x="260" y="1200" width="50" height="50" rx="4" fill="#ffd8a8" stroke="#e8590c" stroke-width="1.5" stroke-dasharray="4,2"/>
<text x="285" y="1225" font-family="Arial" font-size="7" fill="#e8590c" text-anchor="middle">风扇1</text>
<text x="285" y="1237" font-family="Arial" font-size="5" fill="#e8590c" text-anchor="middle">120mm</text>

<rect x="260" y="1265" width="50" height="50" rx="4" fill="#ffd8a8" stroke="#e8590c" stroke-width="1.5" stroke-dasharray="4,2"/>
<text x="285" y="1290" font-family="Arial" font-size="7" fill="#e8590c" text-anchor="middle">风扇2</text>
<text x="285" y="1302" font-family="Arial" font-size="5" fill="#e8590c" text-anchor="middle">120mm</text>

<!-- 风道箭头 -->
<path d="M 225 1250 L 255 1250" stroke="#e8590c" stroke-width="2" marker-end="url(#ah)"/>
<text x="240" y="1245" font-family="Arial" font-size="6" fill="#e8590c" text-anchor="middle">进风</text>

<!-- 标注 -->
<text x="500" y="1410" font-family="Arial" font-size="8" fill="#495057" text-anchor="middle">风道：↓底部进风 → 散热器翅片 → 双120mm风扇抽风 → 后面板排风</text>
<text x="500" y="1424" font-family="Arial" font-size="8" fill="#495057" text-anchor="middle">散热器350mm长贯穿机箱前后，气流覆盖全部翅片</text>

<!-- 重量预算 -->
<text x="500" y="1448" font-family="Arial" font-size="9" fill="#495057" text-anchor="middle">重量预算：散热器2.5kg + 壳体(SPCC)1.0kg + PCB/元件0.5kg + 风扇×2 0.3kg + 变压器/线缆0.7kg = 约5.0kg</text>

<!-- ============================================================ -->
<!-- VIEW D: 后面板布局 -->
<!-- ============================================================ -->
<rect x="995" y="545" width="1030" height="935" fill="#f8f9fa" stroke="#dee2e6" stroke-width="1" rx="0"/>
<text x="1510" y="567" font-family="Arial, Helvetica, sans-serif" font-size="16" fill="#212529" font-weight="bold" text-anchor="middle">D : 后面板布局  (W310 × H120mm)</text>

<!-- 后面板主体 -->
<rect x="1200" y="600" width="620" height="240" rx="6" fill="url(#frontGrad)" stroke="#1a1a1a" stroke-width="2"/>

<!-- 双风扇 -->
<rect x="1330" y="615" width="190" height="190" rx="8" fill="#2a2a2a" stroke="#444" stroke-width="1"/>
<circle cx="1425" cy="710" r="55" fill="none" stroke="#333" stroke-width="1.5"/>
<circle cx="1425" cy="710" r="33" fill="none" stroke="#333" stroke-width="1.5"/>
<circle cx="1425" cy="710" r="18" fill="#2a2a2a" stroke="#555" stroke-width="1"/>
<line x1="1388" y1="710" x2="1462" y2="710" stroke="#444" stroke-width="1"/>
<line x1="1425" y1="673" x2="1425" y2="747" stroke="#444" stroke-width="1"/>
<text x="1425" y="822" font-family="Arial" font-size="8" fill="#888" text-anchor="middle">120mm PWM 风扇1</text>

<rect x="1530" y="615" width="190" height="190" rx="8" fill="#2a2a2a" stroke="#444" stroke-width="1"/>
<circle cx="1625" cy="710" r="55" fill="none" stroke="#333" stroke-width="1.5"/>
<circle cx="1625" cy="710" r="33" fill="none" stroke="#333" stroke-width="1.5"/>
<circle cx="1625" cy="710" r="18" fill="#2a2a2a" stroke="#555" stroke-width="1"/>
<line x1="1588" y1="710" x2="1662" y2="710" stroke="#444" stroke-width="1"/>
<line x1="1625" y1="673" x2="1625" y2="747" stroke="#444" stroke-width="1"/>
<text x="1625" y="822" font-family="Arial" font-size="8" fill="#888" text-anchor="middle">120mm PWM 风扇2</text>

<!-- 接口区 - 左侧 -->
<rect x="1218" y="625" width="100" height="180" rx="4" fill="#222" stroke="#3a3a3a" stroke-width="0.5"/>

<!-- IEC 插座 -->
<rect x="1230" y="640" width="76" height="40" rx="3" fill="#444" stroke="#666" stroke-width="0.5"/>
<rect x="1240" y="648" width="56" height="24" rx="2" fill="#333" stroke="#555" stroke-width="0.5"/>
<text x="1268" y="678" font-family="Arial" font-size="7" fill="#ccc" text-anchor="middle">IEC AC IN</text>
<rect x="1246" y="660" width="10" height="8" rx="1" fill="#555"/>
<text x="1252" y="684" font-family="Arial" font-size="5" fill="#888" text-anchor="middle">保险丝</text>

<!-- 电源开关 -->
<rect x="1230" y="690" width="76" height="24" rx="3" fill="#555" stroke="#777" stroke-width="0.5"/>
<circle cx="1248" cy="702" r="5" fill="#00ff88" stroke="none"/>
<text x="1270" y="706" font-family="Arial" font-size="7" fill="#ddd" text-anchor="middle" font-weight="bold">电源开关</text>

<!-- USB-C -->
<rect x="1230" y="725" width="76" height="22" rx="3" fill="#555" stroke="#777" stroke-width="0.5"/>
<rect x="1240" y="731" width="14" height="10" rx="2" fill="#333" stroke="#555" stroke-width="0.5"/>
<text x="1268" y="738" font-family="Arial" font-size="6" fill="#ccc" text-anchor="middle">USB-C</text>
<text x="1268" y="750" font-family="Arial" font-size="5" fill="#888" text-anchor="middle">调试/固件升级</text>

<!-- 通信接口区 -->
<rect x="1218" y="755" width="100" height="48" rx="4" fill="#222" stroke="#3a3a3a" stroke-width="0.5"/>

<!-- SMA天线 -->
<rect x="1235" y="762" width="36" height="16" rx="6" fill="#555" stroke="#777" stroke-width="0.5"/>
<circle cx="1244" cy="770" r="4" fill="#444" stroke="#888" stroke-width="0.5"/>
<text x="1260" y="774" font-family="Arial" font-size="5" fill="#aaa" text-anchor="middle">SMA</text>

<!-- PMBus -->
<rect x="1277" y="762" width="36" height="16" rx="2" fill="#555" stroke="#777" stroke-width="0.5"/>
<text x="1295" y="774" font-family="Arial" font-size="5" fill="#aaa" text-anchor="middle">PMBus</text>

<!-- PE接地 -->
<circle cx="1270" cy="810" r="8" fill="#ffd43b" stroke="#f59f00" stroke-width="1.5"/>
<text x="1270" y="813" font-family="Arial" font-size="7" fill="#222" text-anchor="middle" font-weight="bold">⏚</text>
<text x="1270" y="828" font-family="Arial" font-size="6" fill="#aaa" text-anchor="middle">PE 接地</text>

<!-- 后面板接口清单 -->
<text x="1510" y="870" font-family="Arial" font-size="9" fill="#495057" text-anchor="middle">后面板接口（左→右）：</text>
<text x="1510" y="888" font-family="Arial" font-size="8" fill="#666" text-anchor="middle">
IEC=AC输入+保险丝座 | USB-C=调试/固件升级 | SMA=2.4G WiFi/BLE天线
</text>
<text x="1510" y="906" font-family="Arial" font-size="8" fill="#666" text-anchor="middle">
PMBus=I2C电源管理 | PE=M4保护接地 | 2×120mm PWM风扇=后排风
</text>

<!-- 尺寸标注 -->
<line x1="1200" y1="850" x2="1820" y2="850" stroke="#ff0000" stroke-width="1" stroke-dasharray="3,2"/>
<text x="1510" y="868" font-family="Arial" font-size="9" fill="#e03131" font-weight="bold" text-anchor="middle">310 mm</text>

<line x1="1195" y1="600" x2="1195" y2="840" stroke="#ff0000" stroke-width="1" stroke-dasharray="3,2"/>
<text x="1183" y="725" font-family="Arial" font-size="9" fill="#e03131" font-weight="bold" text-anchor="middle" transform="rotate(-90,1183,725)">120 mm</text>

<!-- 配色说明 -->
<text x="1510" y="940" font-family="Arial" font-size="9" fill="#495057" text-anchor="middle">配色方案（ITECH风格）：</text>
<rect x="1370" y="950" width="12" height="12" rx="1" fill="#1a1a1a" stroke="#444" stroke-width="0.5"/>
<text x="1388" y="960" font-family="Arial" font-size="8" fill="#555" text-anchor="start">机身：深灰 (RAL 7021)</text>
<rect x="1550" y="950" width="12" height="12" rx="1" fill="#00a884" stroke="#008e6f" stroke-width="0.5"/>
<text x="1568" y="960" font-family="Arial" font-size="8" fill="#555" text-anchor="start">装饰条/Logo：青绿 (ITECH Teal)</text>
<rect x="1370" y="968" width="12" height="12" rx="1" fill="#e74c3c" stroke="#c0392b" stroke-width="0.5"/>
<text x="1388" y="978" font-family="Arial" font-size="8" fill="#555" text-anchor="start">正极端子：红色</text>
<rect x="1550" y="968" width="12" height="12" rx="1" fill="#3498db" stroke="#2980b9" stroke-width="0.5"/>
<text x="1568" y="978" font-family="Arial" font-size="8" fill="#555" text-anchor="start">负极端子：蓝色</text>

<!-- footer -->
<line x1="20" y1="1460" x2="2020" y2="1460" stroke="#dee2e6" stroke-width="1"/>
<text x="20" y="1480" font-family="Arial, Helvetica, sans-serif" font-size="11" fill="#adb5bd">SYS-ARCH-006-S2 v1 — ITECH 风格工业设计 — 方案B</text>
<text x="2020" y="1480" font-family="Arial, Helvetica, sans-serif" font-size="11" fill="#adb5bd" text-anchor="end">图纸 1/1 — Rev A</text>
</svg>
