<?xml version="1.0" encoding="UTF-8"?>
<svg width="2000" height="1480" viewBox="0 0 2000 1480"
     xmlns="http://www.w3.org/2000/svg"
     style="background-color: #ffffff; font-family: Arial, Helvetica, sans-serif;">
<defs>
  <marker id="arrowhead" markerWidth="10" markerHeight="7" refX="10" refY="3.5" orient="auto">
    <polygon points="0 0, 10 3.5, 0 7" fill="#495057"/>
  </marker>
  <marker id="arrowhead-blue" markerWidth="10" markerHeight="7" refX="10" refY="3.5" orient="auto">
    <polygon points="0 0, 10 3.5, 0 7" fill="#74c0fc"/>
  </marker>
</defs>

<rect x="20" y="20" width="1960" height="1" fill="#dee2e6"/>
<text x="20" y="45" font-family="Arial" font-size="13" fill="#868e96">
文档：SYS-ARCH-006-S1 | 方案 A — 散热器作为结构脊柱 | 2026-05-28 | 比例：NTS</text>
<line x1="20" y1="52" x2="1980" y2="52" stroke="#dee2e6" stroke-width="1"/>

<rect x="40" y="60" width="980" height="660" fill="#f8f9fa" stroke="#dee2e6" stroke-width="1" rx="0"/><text x="530" y="80" font-family="Arial, Helvetica, sans-serif" font-size="15" fill="#212529" font-weight="bold" text-anchor="middle">A-A : 结构爆炸图</text><rect x="280" y="320" width="500" height="120" fill="#d0bfff" stroke="#845ef7" stroke-width="2" rx="3"/><text x="530" y="355" font-family="Arial, Helvetica, sans-serif" font-size="12" fill="#845ef7" font-weight="bold" text-anchor="middle">350×150×50mm 铝型材散热器</text><text x="530" y="375" font-family="Arial, Helvetica, sans-serif" font-size="11" fill="#6c757d" font-weight="normal" text-anchor="middle">~2.5kg  |  结构脊柱</text><text x="530" y="395" font-family="Arial, Helvetica, sans-serif" font-size="10" fill="#6c757d" font-weight="normal" text-anchor="middle">两端面预钻 M4 螺纹孔</text><text x="530" y="415" font-family="Arial, Helvetica, sans-serif" font-size="10" fill="#6c757d" font-weight="normal" text-anchor="middle">平面攻丝用于 PCB 螺柱固定和 MOSFET 安装</text><line x1="290" y1="330" x2="770" y2="330" stroke="#845ef7" stroke-width="0.5"/><line x1="290" y1="345" x2="770" y2="345" stroke="#845ef7" stroke-width="0.5"/><line x1="290" y1="360" x2="770" y2="360" stroke="#845ef7" stroke-width="0.5"/><line x1="290" y1="375" x2="770" y2="375" stroke="#845ef7" stroke-width="0.5"/><line x1="290" y1="390" x2="770" y2="390" stroke="#845ef7" stroke-width="0.5"/><line x1="290" y1="405" x2="770" y2="405" stroke="#845ef7" stroke-width="0.5"/><line x1="290" y1="420" x2="770" y2="420" stroke="#845ef7" stroke-width="0.5"/><rect x="310" y="455" width="60" height="25" fill="#ffc9c9" stroke="#e03131" stroke-width="1" rx="2"/><text x="340" y="472" font-family="Arial, Helvetica, sans-serif" font-size="8" fill="#e03131" font-weight="normal" text-anchor="middle">M90N20</text><rect x="310" y="485" width="60" height="25" fill="#ffc9c9" stroke="#e03131" stroke-width="1" rx="2"/><text x="340" y="502" font-family="Arial, Helvetica, sans-serif" font-size="8" fill="#e03131" font-weight="normal" text-anchor="middle">M90N20</text><rect x="435" y="455" width="60" height="25" fill="#ffc9c9" stroke="#e03131" stroke-width="1" rx="2"/><text x="465" y="472" font-family="Arial, Helvetica, sans-serif" font-size="8" fill="#e03131" font-weight="normal" text-anchor="middle">M90N20</text><rect x="435" y="485" width="60" height="25" fill="#ffc9c9" stroke="#e03131" stroke-width="1" rx="2"/><text x="465" y="502" font-family="Arial, Helvetica, sans-serif" font-size="8" fill="#e03131" font-weight="normal" text-anchor="middle">M90N20</text><rect x="560" y="455" width="60" height="25" fill="#ffc9c9" stroke="#e03131" stroke-width="1" rx="2"/><text x="590" y="472" font-family="Arial, Helvetica, sans-serif" font-size="8" fill="#e03131" font-weight="normal" text-anchor="middle">M90N20</text><rect x="560" y="485" width="60" height="25" fill="#ffc9c9" stroke="#e03131" stroke-width="1" rx="2"/><text x="590" y="502" font-family="Arial, Helvetica, sans-serif" font-size="8" fill="#e03131" font-weight="normal" text-anchor="middle">M90N20</text><rect x="685" y="455" width="60" height="25" fill="#ffc9c9" stroke="#e03131" stroke-width="1" rx="2"/><text x="715" y="472" font-family="Arial, Helvetica, sans-serif" font-size="8" fill="#e03131" font-weight="normal" text-anchor="middle">M90N20</text><rect x="685" y="485" width="60" height="25" fill="#ffc9c9" stroke="#e03131" stroke-width="1" rx="2"/><text x="715" y="502" font-family="Arial, Helvetica, sans-serif" font-size="8" fill="#e03131" font-weight="normal" text-anchor="middle">M90N20</text><text x="530" y="540" font-family="Arial, Helvetica, sans-serif" font-size="10" fill="#e03131" font-weight="normal" text-anchor="middle">MOSFET 阵列: 8× M90N20（背靠背直贴散热器）</text><rect x="410" y="230" width="240" height="70" fill="#b2f2bb" stroke="#2f9e44" stroke-width="1.5" rx="3"/><text x="530" y="255" font-family="Arial, Helvetica, sans-serif" font-size="11" fill="#2f9e44" font-weight="bold" text-anchor="middle">C2000 主板</text><text x="530" y="272" font-family="Arial, Helvetica, sans-serif" font-size="9" fill="#6c757d" font-weight="normal" text-anchor="middle">TMS320F280049 + DAC/运放/ADC</text><text x="530" y="286" font-family="Arial, Helvetica, sans-serif" font-size="9" fill="#6c757d" font-weight="normal" text-anchor="middle">200×120mm  |  4层板</text><circle cx="440" cy="310" r="4" fill="#adb5bd" stroke="#868e96" stroke-width="1"/><circle cx="530" cy="310" r="4" fill="#adb5bd" stroke="#868e96" stroke-width="1"/><circle cx="640" cy="310" r="4" fill="#adb5bd" stroke="#868e96" stroke-width="1"/><circle cx="730" cy="310" r="4" fill="#adb5bd" stroke="#868e96" stroke-width="1"/><text x="710" y="295" font-family="Arial, Helvetica, sans-serif" font-size="9" fill="#6c757d" font-weight="normal" text-anchor="middle">M3 螺柱 15mm</text><rect x="810" y="290" width="80" height="40" fill="#b2f2bb" stroke="#2f9e44" stroke-width="1" rx="2"/><text x="850" y="313" font-family="Arial, Helvetica, sans-serif" font-size="9" fill="#2f9e44" font-weight="bold" text-anchor="middle">反激电源</text><rect x="810" y="350" width="80" height="40" fill="#99e9f2" stroke="#0c8599" stroke-width="1" rx="2"/><text x="850" y="375" font-family="Arial, Helvetica, sans-serif" font-size="9" fill="#0c8599" font-weight="bold" text-anchor="middle">ESP32-S3</text><rect x="800" y="405" width="60" height="25" fill="#fff3bf" stroke="#fab005" stroke-width="1" rx="2"/><text x="830" y="422" font-family="Arial, Helvetica, sans-serif" font-size="9" fill="#e67700" font-weight="normal" text-anchor="middle">分流器×2</text><rect x="390" y="150" width="280" height="60" fill="#a5d8ff" stroke="#1971c2" stroke-width="1.5" rx="4"/><text x="530" y="175" font-family="Arial, Helvetica, sans-serif" font-size="11" fill="#1971c2" font-weight="bold" text-anchor="middle">前面板</text><text x="530" y="195" font-family="Arial, Helvetica, sans-serif" font-size="9" fill="#6c757d" font-weight="normal" text-anchor="middle">铝合金 5mm  |  RAL 7021 深灰 + 橙色点缀</text><line x1="530" y1="215" x2="530.0" y2="312.6" stroke="#1971c2" stroke-width="1.5"/><polygon points="530.0,312.6 527.0,307.4038475772934 533.0,307.4038475772934" fill="#1971c2"/><rect x="390" y="470" width="280" height="60" fill="#a5d8ff" stroke="#1971c2" stroke-width="1.5" rx="4"/><text x="530" y="495" font-family="Arial, Helvetica, sans-serif" font-size="11" fill="#1971c2" font-weight="bold" text-anchor="middle">后面板</text><text x="530" y="515" font-family="Arial, Helvetica, sans-serif" font-size="9" fill="#6c757d" font-weight="normal" text-anchor="middle">铝合金 5mm  |  PMBus / CANbus / USB-C / IEC</text><line x1="530" y1="465" x2="530.0" y2="447.4" stroke="#1971c2" stroke-width="1.5"/><polygon points="530.0,447.4 533.0,452.5961524227066 527.0,452.5961524227066" fill="#1971c2"/><rect x="800" y="345" width="100" height="70" fill="#ffd8a8" stroke="#e8590c" stroke-width="1.5" rx="3"/><text x="850" y="370" font-family="Arial, Helvetica, sans-serif" font-size="10" fill="#e8590c" font-weight="bold" text-anchor="middle">风扇×2</text><text x="850" y="390" font-family="Arial, Helvetica, sans-serif" font-size="9" fill="#e8590c" font-weight="normal" text-anchor="middle">120mm PWM</text><text x="850" y="405" font-family="Arial, Helvetica, sans-serif" font-size="8" fill="#6c757d" font-weight="normal" text-anchor="middle">后排风</text><line x1="790" y1="380" x2="787.4" y2="380.0" stroke="#adb5bd" stroke-dasharray="6,4" stroke-width="1"/><polygon points="787.4,380.0 792.5961524227066,377.0 792.5961524227066,383.0" fill="#adb5bd"/><rect x="250" y="110" width="560" height="18" fill="#a5d8ff" stroke="#1971c2" stroke-width="1" rx="1"/><text x="530" y="102" font-family="Arial, Helvetica, sans-serif" font-size="9" fill="#1971c2" font-weight="normal" text-anchor="middle">上盖板（SPCC 1.5mm）</text><line x1="530" y1="133" x2="530.0" y2="312.6" stroke="#adb5bd" stroke-dasharray="6,4" stroke-width="1"/><polygon points="530.0,312.6 527.0,307.4038475772934 533.0,307.4038475772934" fill="#adb5bd"/><rect x="250" y="540" width="560" height="18" fill="#a5d8ff" stroke="#1971c2" stroke-width="1" rx="1"/><text x="530" y="576" font-family="Arial, Helvetica, sans-serif" font-size="9" fill="#1971c2" font-weight="normal" text-anchor="middle">底板（SPCC 1.5mm，带进风口）</text><line x1="530" y1="535" x2="530.0" y2="447.4" stroke="#adb5bd" stroke-dasharray="6,4" stroke-width="1"/><polygon points="530.0,447.4 533.0,452.5961524227066 527.0,452.5961524227066" fill="#adb5bd"/><rect x="245" y="280" width="20" height="200" fill="#a5d8ff" stroke="#1971c2" stroke-width="1" rx="0"/><text x="255" y="430.0" font-family="Arial, Helvetica, sans-serif" font-size="8" fill="#1971c2" font-weight="normal" text-anchor="middle">侧板</text><rect x="795" y="280" width="20" height="200" fill="#a5d8ff" stroke="#1971c2" stroke-width="1" rx="0"/><text x="805" y="430.0" font-family="Arial, Helvetica, sans-serif" font-size="8" fill="#1971c2" font-weight="normal" text-anchor="middle">侧板</text><rect x="55" y="100" width="220" height="106" fill="#fff3bf" stroke="#fab005" stroke-width="1" rx="4"/><text x="63" y="116" font-family="Arial, Helvetica, sans-serif" font-size="11" fill="#212529" font-weight="normal" text-anchor="start">结构方案：散热器作为结构脊柱</text><text x="63" y="134" font-family="Arial, Helvetica, sans-serif" font-size="11" fill="#212529" font-weight="normal" text-anchor="start">面板直接螺栓固定在散热器两端</text><text x="63" y="152" font-family="Arial, Helvetica, sans-serif" font-size="11" fill="#212529" font-weight="normal" text-anchor="start">SPCC 薄壳包裹散热器</text><text x="63" y="170" font-family="Arial, Helvetica, sans-serif" font-size="11" fill="#212529" font-weight="normal" text-anchor="start">PCB 与外壳之间保持气隙</text><text x="63" y="188" font-family="Arial, Helvetica, sans-serif" font-size="11" fill="#212529" font-weight="normal" text-anchor="start">所有紧固件：M4 不锈钢</text>
<rect x="1060" y="60" width="900" height="410" fill="#f8f9fa" stroke="#dee2e6" stroke-width="1" rx="0"/><text x="1510" y="80" font-family="Arial, Helvetica, sans-serif" font-size="15" fill="#212529" font-weight="bold" text-anchor="middle">B-B : 前面板布局</text><rect x="1280.0" y="100.0" width="460" height="320" fill="#ffffff" stroke="#212529" stroke-width="2" rx="6"/><line x1="1260.0" y1="430.0" x2="1760.0" y2="430.0" stroke="#dee2e6" stroke-width="1"/><text x="1510" y="450.0" font-family="Arial, Helvetica, sans-serif" font-size="10" fill="#6c757d" font-weight="normal" text-anchor="middle">面板倾斜约 15°</text><rect x="1310.0" y="140.0" width="200" height="120" fill="#e9ecef" stroke="#212529" stroke-width="1.5" rx="3"/><rect x="1315.0" y="145.0" width="190" height="110" fill="#dee2e6" stroke="none" stroke-width="1" rx="0"/><text x="1410.0" y="192.0" font-family="Arial, Helvetica, sans-serif" font-size="11" fill="#212529" font-weight="bold" text-anchor="middle">4.3&quot; IPS TFT</text><text x="1410.0" y="210.0" font-family="Arial, Helvetica, sans-serif" font-size="9" fill="#6c757d" font-weight="normal" text-anchor="middle">800×480  |  电容触摸</text><text x="1410.0" y="405.0" font-family="Arial, Helvetica, sans-serif" font-size="10" fill="#6c757d" font-weight="normal" text-anchor="middle">显示屏：4.3&quot; IPS TFT（电容触摸）</text><circle cx="1540.0" cy="170.0" r="22" fill="#ffffff" stroke="#212529" stroke-width="1.5"/><circle cx="1540.0" cy="170.0" r="14" fill="#ffffff" stroke="#adb5bd" stroke-width="1"/><circle cx="1540.0" cy="170.0" r="4" fill="#212529" stroke="#adb5bd" stroke-width="1"/><rect x="1520.0" y="200.0" width="40" height="40" fill="#ffffff" stroke="#dee2e6" stroke-width="1" rx="2"/><text x="1540.0" y="225.0" font-family="Arial, Helvetica, sans-serif" font-size="9" fill="#6c757d" font-weight="normal" text-anchor="middle">编码器</text><text x="1540.0" y="185.0" font-family="Arial, Helvetica, sans-serif" font-size="8" fill="#6c757d" font-weight="normal" text-anchor="middle">旋转 + 按键</text><circle cx="1580.0" cy="170.0" r="6" fill="#2f9e44" stroke="#adb5bd" stroke-width="1"/><text x="1580.0" y="185.0" font-family="Arial, Helvetica, sans-serif" font-size="8" fill="#6c757d" font-weight="normal" text-anchor="middle">状态灯</text><rect x="1665.0" y="140.0" width="30" height="20" fill="#ffffff" stroke="#212529" stroke-width="1.5" rx="2"/><text x="1680.0" y="175.0" font-family="Arial, Helvetica, sans-serif" font-size="8" fill="#6c757d" font-weight="normal" text-anchor="middle">电源</text><circle cx="1380.0" cy="345.0" r="15" fill="#ffc9c9" stroke="#e03131" stroke-width="2"/><text x="1380.0" y="350.0" font-family="Arial, Helvetica, sans-serif" font-size="14" fill="#e03131" font-weight="bold" text-anchor="middle">+</text><text x="1380.0" y="370.0" font-family="Arial, Helvetica, sans-serif" font-size="10" fill="#e03131" font-weight="bold" text-anchor="middle">DC+</text><rect x="1350.0" y="375.0" width="60" height="12" fill="#e03131" stroke="#adb5bd" stroke-width="1" rx="2"/><text x="1380.0" y="385.0" font-family="Arial, Helvetica, sans-serif" font-size="8" fill="#ffffff" font-weight="normal" text-anchor="middle">60A</text><circle cx="1480.0" cy="345.0" r="15" fill="#a5d8ff" stroke="#1971c2" stroke-width="2"/><text x="1480.0" y="350.0" font-family="Arial, Helvetica, sans-serif" font-size="14" fill="#1971c2" font-weight="bold" text-anchor="middle">−</text><text x="1480.0" y="370.0" font-family="Arial, Helvetica, sans-serif" font-size="10" fill="#1971c2" font-weight="bold" text-anchor="middle">DC−</text><rect x="1450.0" y="375.0" width="60" height="12" fill="#1971c2" stroke="#adb5bd" stroke-width="1" rx="2"/><text x="1480.0" y="385.0" font-family="Arial, Helvetica, sans-serif" font-size="8" fill="#ffffff" font-weight="normal" text-anchor="middle">60A</text><circle cx="1590.0" cy="345.0" r="10" fill="#ffffff" stroke="#0c8599" stroke-width="1.5"/><text x="1590.0" y="365.0" font-family="Arial, Helvetica, sans-serif" font-size="8" fill="#0c8599" font-weight="normal" text-anchor="middle">S+</text><circle cx="1660.0" cy="345.0" r="10" fill="#ffffff" stroke="#0c8599" stroke-width="1.5"/><text x="1660.0" y="365.0" font-family="Arial, Helvetica, sans-serif" font-size="8" fill="#0c8599" font-weight="normal" text-anchor="middle">S−</text><text x="1625.0" y="380.0" font-family="Arial, Helvetica, sans-serif" font-size="8" fill="#6c757d" font-weight="normal" text-anchor="middle">远程采样</text><rect x="1650.0" y="320.0" width="40" height="20" fill="#212529" stroke="#adb5bd" stroke-width="1" rx="2"/><text x="1670.0" y="334.0" font-family="Arial, Helvetica, sans-serif" font-size="7" fill="#ffffff" font-weight="normal" text-anchor="middle">USB</text><text x="1670.0" y="352.0" font-family="Arial, Helvetica, sans-serif" font-size="8" fill="#6c757d" font-weight="normal" text-anchor="middle">USB-A 主口</text><line x1="1280.0" y1="420.0" x2="1250.0" y2="420.0" stroke="#fa5252" stroke-width="0.8"/><line x1="1280.0" y1="100.0" x2="1250.0" y2="100.0" stroke="#fa5252" stroke-width="0.8"/><line x1="1255.0" y1="100.0" x2="1255.0" y2="420.0" stroke="#fa5252" stroke-width="0.8"/><text x="1255.0" y="265.0" font-family="Arial, Helvetica, sans-serif" font-size="9" fill="#fa5252" font-weight="normal" text-anchor="end">260mm</text><line x1="1740.0" y1="420.0" x2="1770.0" y2="420.0" stroke="#fa5252" stroke-width="0.8"/><line x1="1740.0" y1="100.0" x2="1770.0" y2="100.0" stroke="#fa5252" stroke-width="0.8"/><line x1="1765.0" y1="100.0" x2="1765.0" y2="420.0" stroke="#fa5252" stroke-width="0.8"/><text x="1765.0" y="265.0" font-family="Arial, Helvetica, sans-serif" font-size="9" fill="#fa5252" font-weight="normal" text-anchor="start">110mm</text>
<rect x="40" y="760" width="980" height="620" fill="#f8f9fa" stroke="#dee2e6" stroke-width="1" rx="0"/><text x="530" y="780" font-family="Arial, Helvetica, sans-serif" font-size="15" fill="#212529" font-weight="bold" text-anchor="middle">C-C : 内部俯视图</text><rect x="270.0" y="880.0" width="520" height="400" fill="#f1f3f5" stroke="#212529" stroke-width="2" rx="4"/><text x="530" y="865.0" font-family="Arial, Helvetica, sans-serif" font-size="10" fill="#6c757d" font-weight="normal" text-anchor="middle">机壳轮廓：宽260 × 深320 × 高110mm</text><rect x="380.0" y="960.0" width="300" height="240" fill="#d0bfff" stroke="#845ef7" stroke-width="2" rx="2"/><line x1="388.0" y1="972.0" x2="672.0" y2="972.0" stroke="#845ef7" stroke-width="0.5"/><line x1="388.0" y1="990.0" x2="672.0" y2="990.0" stroke="#845ef7" stroke-width="0.5"/><line x1="388.0" y1="1008.0" x2="672.0" y2="1008.0" stroke="#845ef7" stroke-width="0.5"/><line x1="388.0" y1="1026.0" x2="672.0" y2="1026.0" stroke="#845ef7" stroke-width="0.5"/><line x1="388.0" y1="1044.0" x2="672.0" y2="1044.0" stroke="#845ef7" stroke-width="0.5"/><line x1="388.0" y1="1062.0" x2="672.0" y2="1062.0" stroke="#845ef7" stroke-width="0.5"/><line x1="388.0" y1="1080.0" x2="672.0" y2="1080.0" stroke="#845ef7" stroke-width="0.5"/><line x1="388.0" y1="1098.0" x2="672.0" y2="1098.0" stroke="#845ef7" stroke-width="0.5"/><line x1="388.0" y1="1116.0" x2="672.0" y2="1116.0" stroke="#845ef7" stroke-width="0.5"/><line x1="388.0" y1="1134.0" x2="672.0" y2="1134.0" stroke="#845ef7" stroke-width="0.5"/><line x1="388.0" y1="1152.0" x2="672.0" y2="1152.0" stroke="#845ef7" stroke-width="0.5"/><line x1="388.0" y1="1170.0" x2="672.0" y2="1170.0" stroke="#845ef7" stroke-width="0.5"/><text x="530" y="950.0" font-family="Arial, Helvetica, sans-serif" font-size="10" fill="#845ef7" font-weight="normal" text-anchor="middle">散热器 350×150mm（铝型材）</text><rect x="400.0" y="990.0" width="100" height="30" fill="#ffc9c9" stroke="#e03131" stroke-width="1" rx="2"/><text x="450.0" y="1010.0" font-family="Arial, Helvetica, sans-serif" font-size="9" fill="#e03131" font-weight="normal" text-anchor="middle">M1</text><rect x="560.0" y="990.0" width="100" height="30" fill="#ffc9c9" stroke="#e03131" stroke-width="1" rx="2"/><text x="610.0" y="1010.0" font-family="Arial, Helvetica, sans-serif" font-size="9" fill="#e03131" font-weight="normal" text-anchor="middle">M2</text><rect x="400.0" y="1040.0" width="100" height="30" fill="#ffc9c9" stroke="#e03131" stroke-width="1" rx="2"/><text x="450.0" y="1060.0" font-family="Arial, Helvetica, sans-serif" font-size="9" fill="#e03131" font-weight="normal" text-anchor="middle">M3</text><rect x="560.0" y="1040.0" width="100" height="30" fill="#ffc9c9" stroke="#e03131" stroke-width="1" rx="2"/><text x="610.0" y="1060.0" font-family="Arial, Helvetica, sans-serif" font-size="9" fill="#e03131" font-weight="normal" text-anchor="middle">M4</text><rect x="400.0" y="1090.0" width="100" height="30" fill="#ffc9c9" stroke="#e03131" stroke-width="1" rx="2"/><text x="450.0" y="1110.0" font-family="Arial, Helvetica, sans-serif" font-size="9" fill="#e03131" font-weight="normal" text-anchor="middle">M5</text><rect x="560.0" y="1090.0" width="100" height="30" fill="#ffc9c9" stroke="#e03131" stroke-width="1" rx="2"/><text x="610.0" y="1110.0" font-family="Arial, Helvetica, sans-serif" font-size="9" fill="#e03131" font-weight="normal" text-anchor="middle">M6</text><rect x="400.0" y="1140.0" width="100" height="30" fill="#ffc9c9" stroke="#e03131" stroke-width="1" rx="2"/><text x="450.0" y="1160.0" font-family="Arial, Helvetica, sans-serif" font-size="9" fill="#e03131" font-weight="normal" text-anchor="middle">M7</text><rect x="560.0" y="1140.0" width="100" height="30" fill="#ffc9c9" stroke="#e03131" stroke-width="1" rx="2"/><text x="610.0" y="1160.0" font-family="Arial, Helvetica, sans-serif" font-size="9" fill="#e03131" font-weight="normal" text-anchor="middle">M8</text><text x="530" y="1225.0" font-family="Arial, Helvetica, sans-serif" font-size="10" fill="#e03131" font-weight="normal" text-anchor="middle">MOSFET 阵列：8× M90N20（背靠背成对排列于散热器上）</text><rect x="320.0" y="910.0" width="200" height="80" fill="#b2f2bb" stroke="#2f9e44" stroke-width="1.5" rx="3"/><text x="420.0" y="935.0" font-family="Arial, Helvetica, sans-serif" font-size="10" fill="#2f9e44" font-weight="bold" text-anchor="middle">C2000 主板</text><text x="420.0" y="955.0" font-family="Arial, Helvetica, sans-serif" font-size="9" fill="#2f9e44" font-weight="normal" text-anchor="middle">TMS320F280049</text><text x="420.0" y="970.0" font-family="Arial, Helvetica, sans-serif" font-size="8" fill="#6c757d" font-weight="normal" text-anchor="middle">DAC80508 + 运放 + ADC</text><rect x="320.0" y="1190.0" width="70" height="50" fill="#b2f2bb" stroke="#2f9e44" stroke-width="1" rx="2"/><text x="355.0" y="1210.0" font-family="Arial, Helvetica, sans-serif" font-size="9" fill="#2f9e44" font-weight="bold" text-anchor="middle">反激电源</text><text x="355.0" y="1228.0" font-family="Arial, Helvetica, sans-serif" font-size="8" fill="#6c757d" font-weight="normal" text-anchor="middle">70×50mm</text><rect x="660.0" y="1190.0" width="80" height="50" fill="#99e9f2" stroke="#0c8599" stroke-width="1" rx="2"/><text x="700.0" y="1210.0" font-family="Arial, Helvetica, sans-serif" font-size="9" fill="#0c8599" font-weight="bold" text-anchor="middle">ESP32-S3</text><text x="700.0" y="1228.0" font-family="Arial, Helvetica, sans-serif" font-size="8" fill="#6c757d" font-weight="normal" text-anchor="middle">Wi-Fi + BLE</text><rect x="340.0" y="1020.0" width="30" height="50" fill="#fff3bf" stroke="#fab005" stroke-width="1" rx="2"/><text x="355.0" y="1050.0" font-family="Arial, Helvetica, sans-serif" font-size="8" fill="#e67700" font-weight="normal" text-anchor="middle">SH</text><text x="355.0" y="1063.0" font-family="Arial, Helvetica, sans-serif" font-size="7" fill="#e67700" font-weight="normal" text-anchor="middle">×2</text><rect x="350.0" y="1240.0" width="80" height="80" fill="#ffd8a8" stroke="#e8590c" stroke-width="1.5" rx="3"/><circle cx="390.0" cy="1280.0" r="20" fill="none" stroke="#e8590c" stroke-width="1"/><text x="390.0" y="1285.0" font-family="Arial, Helvetica, sans-serif" font-size="9" fill="#e8590c" font-weight="normal" text-anchor="middle">风扇1</text><rect x="450.0" y="1240.0" width="80" height="80" fill="#ffd8a8" stroke="#e8590c" stroke-width="1.5" rx="3"/><circle cx="490.0" cy="1280.0" r="20" fill="none" stroke="#e8590c" stroke-width="1"/><text x="490.0" y="1285.0" font-family="Arial, Helvetica, sans-serif" font-size="9" fill="#e8590c" font-weight="normal" text-anchor="middle">风扇2</text><text x="530" y="1338.0" font-family="Arial, Helvetica, sans-serif" font-size="10" fill="#e8590c" font-weight="normal" text-anchor="middle">2× 120mm PWM 风扇（后排风）</text><line x1="520.0" y1="890.0" x2="520.0" y2="951.8" stroke="#74c0fc" stroke-width="2"/><polygon points="520.0,951.8 516.0,944.8717967697245 524.0,944.8717967697245" fill="#74c0fc"/><line x1="570.0" y1="890.0" x2="570.0" y2="951.8" stroke="#74c0fc" stroke-width="2"/><polygon points="570.0,951.8 566.0,944.8717967697245 574.0,944.8717967697245" fill="#74c0fc"/><text x="545.0" y="872.0" font-family="Arial, Helvetica, sans-serif" font-size="9" fill="#74c0fc" font-weight="normal" text-anchor="middle">进风 ↑</text><line x1="530.0" y1="1205.0" x2="530.0" y2="1231.8" stroke="#74c0fc" stroke-width="2"/><polygon points="530.0,1231.8 526.0,1224.8717967697244 534.0,1224.8717967697244" fill="#74c0fc"/><text x="550.0" y="1220.0" font-family="Arial, Helvetica, sans-serif" font-size="9" fill="#74c0fc" font-weight="normal" text-anchor="middle">气流 → 风扇</text><rect x="590.0" y="890.0" width="180" height="106" fill="#fff3bf" stroke="#fab005" stroke-width="1" rx="4"/><text x="598.0" y="906.0" font-family="Arial, Helvetica, sans-serif" font-size="11" fill="#212529" font-weight="normal" text-anchor="start">风道路径：</text><text x="598.0" y="924.0" font-family="Arial, Helvetica, sans-serif" font-size="11" fill="#212529" font-weight="normal" text-anchor="start">底部进风 →</text><text x="598.0" y="942.0" font-family="Arial, Helvetica, sans-serif" font-size="11" fill="#212529" font-weight="normal" text-anchor="start">  散热器翅片 →</text><text x="598.0" y="960.0" font-family="Arial, Helvetica, sans-serif" font-size="11" fill="#212529" font-weight="normal" text-anchor="start">  双 120mm 风扇 →</text><text x="598.0" y="978.0" font-family="Arial, Helvetica, sans-serif" font-size="11" fill="#212529" font-weight="normal" text-anchor="start">  后排风口</text>
<rect x="1060" y="510" width="900" height="870" fill="#f8f9fa" stroke="#dee2e6" stroke-width="1" rx="0"/><text x="1510" y="530" font-family="Arial, Helvetica, sans-serif" font-size="15" fill="#212529" font-weight="bold" text-anchor="middle">D-D : 后面板布局</text><rect x="1280.0" y="790.0" width="460" height="320" fill="#ffffff" stroke="#212529" stroke-width="2" rx="6"/><rect x="1310.0" y="820.0" width="60" height="40" fill="#212529" stroke="#adb5bd" stroke-width="1" rx="3"/><rect x="1318.0" y="832.0" width="44" height="16" fill="#dee2e6" stroke="#adb5bd" stroke-width="1" rx="2"/><circle cx="1340.0" cy="840.0" r="3" fill="#212529" stroke="#adb5bd" stroke-width="1"/><text x="1340.0" y="812.0" font-family="Arial, Helvetica, sans-serif" font-size="9" fill="#212529" font-weight="normal" text-anchor="middle">IEC 电源插座</text><text x="1340.0" y="880.0" font-family="Arial, Helvetica, sans-serif" font-size="8" fill="#6c757d" font-weight="normal" text-anchor="middle">含保险丝座</text><rect x="1310.0" y="900.0" width="30" height="16" fill="#212529" stroke="#adb5bd" stroke-width="1" rx="2"/><text x="1325.0" y="895.0" font-family="Arial, Helvetica, sans-serif" font-size="8" fill="#212529" font-weight="normal" text-anchor="middle">USB-C</text><text x="1325.0" y="928.0" font-family="Arial, Helvetica, sans-serif" font-size="8" fill="#6c757d" font-weight="normal" text-anchor="middle">PC 通信 + 固件升级</text><circle cx="1325.0" cy="950.0" r="6" fill="#ffffff" stroke="#212529" stroke-width="1.5"/><circle cx="1325.0" cy="950.0" r="3" fill="#212529" stroke="#adb5bd" stroke-width="1"/><text x="1325.0" y="938.0" font-family="Arial, Helvetica, sans-serif" font-size="8" fill="#212529" font-weight="normal" text-anchor="middle">SMA</text><text x="1325.0" y="968.0" font-family="Arial, Helvetica, sans-serif" font-size="8" fill="#6c757d" font-weight="normal" text-anchor="middle">Wi-Fi/BLE 天线</text><rect x="1310.0" y="1020.0" width="40" height="20" fill="#99e9f2" stroke="#0c8599" stroke-width="1" rx="2"/><text x="1330.0" y="1034.0" font-family="Arial, Helvetica, sans-serif" font-size="8" fill="#0c8599" font-weight="normal" text-anchor="middle">PMBus</text><text x="1330.0" y="1052.0" font-family="Arial, Helvetica, sans-serif" font-size="7" fill="#6c757d" font-weight="normal" text-anchor="middle">2芯排针</text><rect x="1310.0" y="1065.0" width="40" height="20" fill="#99e9f2" stroke="#0c8599" stroke-width="1" rx="2"/><text x="1330.0" y="1079.0" font-family="Arial, Helvetica, sans-serif" font-size="8" fill="#0c8599" font-weight="normal" text-anchor="middle">CAN</text><text x="1330.0" y="1097.0" font-family="Arial, Helvetica, sans-serif" font-size="7" fill="#6c757d" font-weight="normal" text-anchor="middle">2芯端子</text><circle cx="1325.0" cy="1075.0" r="10" fill="#ffc9c9" stroke="#e03131" stroke-width="1.5"/><line x1="1320.0" y1="1080.0" x2="1330.0" y2="1080.0" stroke="#e03131" stroke-width="1"/><line x1="1325.0" y1="1070.0" x2="1325.0" y2="1080.0" stroke="#e03131" stroke-width="1"/><text x="1325.0" y="1057.0" font-family="Arial, Helvetica, sans-serif" font-size="8" fill="#e03131" font-weight="normal" text-anchor="middle">PE</text><text x="1325.0" y="1095.0" font-family="Arial, Helvetica, sans-serif" font-size="8" fill="#6c757d" font-weight="normal" text-anchor="middle">M4 接地端子</text><rect x="1430.0" y="820.0" width="50" height="30" fill="#e9ecef" stroke="#adb5bd" stroke-width="1" rx="2" stroke-dasharray="4,3"/><text x="1455.0" y="838.0" font-family="Arial, Helvetica, sans-serif" font-size="8" fill="#adb5bd" font-weight="normal" text-anchor="middle">RJ45</text><text x="1455.0" y="865.0" font-family="Arial, Helvetica, sans-serif" font-size="8" fill="#6c757d" font-weight="normal" text-anchor="middle">预留（V1.0 不焊）</text><rect x="1540.0" y="810.0" width="120" height="120" fill="#ffd8a8" stroke="#e8590c" stroke-width="2" rx="4"/><circle cx="1600.0" cy="870.0" r="40" fill="none" stroke="#e8590c" stroke-width="1"/><circle cx="1600.0" cy="870.0" r="25" fill="none" stroke="#e8590c" stroke-width="1"/><circle cx="1600.0" cy="870.0" r="12" fill="#e8590c" stroke="#adb5bd" stroke-width="1"/><line x1="1570.0" y1="870.0" x2="1630.0" y2="870.0" stroke="#e8590c" stroke-width="0.8"/><line x1="1600.0" y1="840.0" x2="1600.0" y2="900.0" stroke="#e8590c" stroke-width="0.8"/><text x="1600.0" y="945.0" font-family="Arial, Helvetica, sans-serif" font-size="9" fill="#e8590c" font-weight="normal" text-anchor="middle">风扇 1</text><rect x="1675.0" y="810.0" width="120" height="120" fill="#ffd8a8" stroke="#e8590c" stroke-width="2" rx="4"/><circle cx="1735.0" cy="870.0" r="40" fill="none" stroke="#e8590c" stroke-width="1"/><circle cx="1735.0" cy="870.0" r="25" fill="none" stroke="#e8590c" stroke-width="1"/><circle cx="1735.0" cy="870.0" r="12" fill="#e8590c" stroke="#adb5bd" stroke-width="1"/><line x1="1705.0" y1="870.0" x2="1765.0" y2="870.0" stroke="#e8590c" stroke-width="0.8"/><line x1="1735.0" y1="840.0" x2="1735.0" y2="900.0" stroke="#e8590c" stroke-width="0.8"/><text x="1735.0" y="945.0" font-family="Arial, Helvetica, sans-serif" font-size="9" fill="#e8590c" font-weight="normal" text-anchor="middle">风扇 2</text><text x="1510" y="970.0" font-family="Arial, Helvetica, sans-serif" font-size="10" fill="#e8590c" font-weight="normal" text-anchor="middle">2× 120mm PWM 风扇  |  12V  |  后排风  |  转速可控</text><line x1="1280.0" y1="1110.0" x2="1250.0" y2="1110.0" stroke="#fa5252" stroke-width="0.8"/><line x1="1280.0" y1="790.0" x2="1250.0" y2="790.0" stroke="#fa5252" stroke-width="0.8"/><line x1="1255.0" y1="790.0" x2="1255.0" y2="1110.0" stroke="#fa5252" stroke-width="0.8"/><text x="1255.0" y="955.0" font-family="Arial, Helvetica, sans-serif" font-size="9" fill="#fa5252" font-weight="normal" text-anchor="end">260mm</text><line x1="1740.0" y1="1110.0" x2="1770.0" y2="1110.0" stroke="#fa5252" stroke-width="0.8"/><line x1="1740.0" y1="790.0" x2="1770.0" y2="790.0" stroke="#fa5252" stroke-width="0.8"/><line x1="1765.0" y1="790.0" x2="1765.0" y2="1110.0" stroke="#fa5252" stroke-width="0.8"/><text x="1765.0" y="955.0" font-family="Arial, Helvetica, sans-serif" font-size="9" fill="#fa5252" font-weight="normal" text-anchor="start">110mm</text><rect x="1280.0" y="1160.0" width="200" height="160" fill="#fff3bf" stroke="#fab005" stroke-width="1" rx="4"/><text x="1288.0" y="1176.0" font-family="Arial, Helvetica, sans-serif" font-size="11" fill="#212529" font-weight="normal" text-anchor="start">接口汇总：</text><text x="1288.0" y="1194.0" font-family="Arial, Helvetica, sans-serif" font-size="11" fill="#212529" font-weight="normal" text-anchor="start">IEC 电源插座（含保险丝座）</text><text x="1288.0" y="1212.0" font-family="Arial, Helvetica, sans-serif" font-size="11" fill="#212529" font-weight="normal" text-anchor="start">USB-C：PC 通信 / 固件升级</text><text x="1288.0" y="1230.0" font-family="Arial, Helvetica, sans-serif" font-size="11" fill="#212529" font-weight="normal" text-anchor="start">PMBus：I2C 电源管理总线</text><text x="1288.0" y="1248.0" font-family="Arial, Helvetica, sans-serif" font-size="11" fill="#212529" font-weight="normal" text-anchor="start">CANbus：CAN 2.0 工业通信</text><text x="1288.0" y="1266.0" font-family="Arial, Helvetica, sans-serif" font-size="11" fill="#212529" font-weight="normal" text-anchor="start">SMA：Wi-Fi/BLE 外置天线</text><text x="1288.0" y="1284.0" font-family="Arial, Helvetica, sans-serif" font-size="11" fill="#212529" font-weight="normal" text-anchor="start">RJ45：预留（V1.0 不焊）</text><text x="1288.0" y="1302.0" font-family="Arial, Helvetica, sans-serif" font-size="11" fill="#212529" font-weight="normal" text-anchor="start">M4 保护接地端子</text><rect x="1500.0" y="1160.0" width="200" height="178" fill="#fff3bf" stroke="#fab005" stroke-width="1" rx="4"/><text x="1508.0" y="1176.0" font-family="Arial, Helvetica, sans-serif" font-size="11" fill="#212529" font-weight="normal" text-anchor="start">重量预算：</text><text x="1508.0" y="1194.0" font-family="Arial, Helvetica, sans-serif" font-size="11" fill="#212529" font-weight="normal" text-anchor="start">散热器：       ~2.5 kg</text><text x="1508.0" y="1212.0" font-family="Arial, Helvetica, sans-serif" font-size="11" fill="#212529" font-weight="normal" text-anchor="start">外壳(SPCC)：   ~1.0 kg</text><text x="1508.0" y="1230.0" font-family="Arial, Helvetica, sans-serif" font-size="11" fill="#212529" font-weight="normal" text-anchor="start">PCB+元器件：   ~0.5 kg</text><text x="1508.0" y="1248.0" font-family="Arial, Helvetica, sans-serif" font-size="11" fill="#212529" font-weight="normal" text-anchor="start">风扇：         ~0.3 kg</text><text x="1508.0" y="1266.0" font-family="Arial, Helvetica, sans-serif" font-size="11" fill="#212529" font-weight="normal" text-anchor="start">其他(变压器/线缆)：~0.7 kg</text><text x="1508.0" y="1284.0" font-family="Arial, Helvetica, sans-serif" font-size="11" fill="#212529" font-weight="normal" text-anchor="start">───────────────</text><text x="1508.0" y="1302.0" font-family="Arial, Helvetica, sans-serif" font-size="11" fill="#212529" font-weight="normal" text-anchor="start">总计：         ~5.0 kg</text><text x="1508.0" y="1320.0" font-family="Arial, Helvetica, sans-serif" font-size="11" fill="#212529" font-weight="normal" text-anchor="start">目标 &amp;lt;5kg  |  建议放宽至 6-7kg</text>

<line x1="20" y1="1450" x2="1980" y2="1450" stroke="#dee2e6" stroke-width="1"/>
<text x="20" y="1468" font-family="Arial" font-size="11" fill="#adb5bd">SYS-ARCH-006-S1 — 散热器脊柱结构 — 四视图工程图</text>
<text x="1980" y="1468" font-family="Arial" font-size="11" fill="#adb5bd" text-anchor="end">图纸 1/1 — Rev A</text>
</svg>