<?xml version="1.0" encoding="UTF-8"?>
<svg width="2040" height="1400" viewBox="0 0 2040 1400"
     xmlns="http://www.w3.org/2000/svg"
     style="background:#fff; font-family:Arial, Helvetica, sans-serif;">
<defs>
  <marker id="ah" markerWidth="10" markerHeight="7" refX="10" refY="3.5" orient="auto">
    <polygon points="0 0,10 3.5,0 7" fill="#495057"/>
  </marker>
</defs>

<rect x="20" y="20" width="2000" height="1" fill="#dee2e6"/>
<text x="20" y="44" font-family="Arial, Helvetica, sans-serif" font-size="14" fill="#868e96">
文档：SYS-ARCH-006-S1 v4 | 方案 A — 散热器脊柱结构 | 2026-05-28 | 比例：前面板/内部/后面板 2px:mm</text>
<text x="1510" y="44" font-family="Arial, Helvetica, sans-serif" font-size="14" fill="#fa5252" font-weight="bold">
★ 尺寸修正：W310×D370×H120mm（原 W260×D320×H110mm 不满足散热器和风扇空间需求）</text>
<line x1="20" y1="50" x2="2020" y2="50" stroke="#dee2e6" stroke-width="1"/>

<rect x="20" y="60" width="960" height="660" fill="#f8f9fa" stroke="#dee2e6" stroke-width="1" rx="0"/><text x="500" y="82" font-family="Arial, Helvetica, sans-serif" font-size="16" fill="#212529" font-weight="bold" text-anchor="middle">A-A : 结构爆炸图</text><rect x="220" y="320" width="560" height="120" fill="#d0bfff" stroke="#845ef7" stroke-width="2.5" rx="3"/><line x1="235" y1="330" x2="765" y2="330" stroke="#845ef7" stroke-width="0.5"/><line x1="235" y1="343" x2="765" y2="343" stroke="#845ef7" stroke-width="0.5"/><line x1="235" y1="356" x2="765" y2="356" stroke="#845ef7" stroke-width="0.5"/><line x1="235" y1="369" x2="765" y2="369" stroke="#845ef7" stroke-width="0.5"/><line x1="235" y1="382" x2="765" y2="382" stroke="#845ef7" stroke-width="0.5"/><line x1="235" y1="395" x2="765" y2="395" stroke="#845ef7" stroke-width="0.5"/><line x1="235" y1="408" x2="765" y2="408" stroke="#845ef7" stroke-width="0.5"/><line x1="235" y1="421" x2="765" y2="421" stroke="#845ef7" stroke-width="0.5"/><text x="500" y="345" font-family="Arial, Helvetica, sans-serif" font-size="12" fill="#845ef7" font-weight="bold" text-anchor="middle">铝型材散热器  350×150×50mm  ~2.5kg</text><text x="500" y="362" font-family="Arial, Helvetica, sans-serif" font-size="10" fill="#6c757d" font-weight="normal" text-anchor="middle">结构脊柱：前后面板螺栓固定于散热器两端</text><text x="500" y="378" font-family="Arial, Helvetica, sans-serif" font-size="10" fill="#6c757d" font-weight="normal" text-anchor="middle">PCB 通过 M3×15mm 螺柱架于散热器上方</text><rect x="255" y="455" width="90" height="28" fill="#ffc9c9" stroke="#e03131" stroke-width="1.5" rx="2"/><text x="300" y="473" font-family="Arial, Helvetica, sans-serif" font-size="8" fill="#e03131" font-weight="normal" text-anchor="middle">M90N20</text><rect x="255" y="488" width="90" height="28" fill="#ffc9c9" stroke="#e03131" stroke-width="1.5" rx="2"/><text x="300" y="506" font-family="Arial, Helvetica, sans-serif" font-size="8" fill="#e03131" font-weight="normal" text-anchor="middle">M90N20</text><rect x="385" y="455" width="90" height="28" fill="#ffc9c9" stroke="#e03131" stroke-width="1.5" rx="2"/><text x="430" y="473" font-family="Arial, Helvetica, sans-serif" font-size="8" fill="#e03131" font-weight="normal" text-anchor="middle">M90N20</text><rect x="385" y="488" width="90" height="28" fill="#ffc9c9" stroke="#e03131" stroke-width="1.5" rx="2"/><text x="430" y="506" font-family="Arial, Helvetica, sans-serif" font-size="8" fill="#e03131" font-weight="normal" text-anchor="middle">M90N20</text><rect x="515" y="455" width="90" height="28" fill="#ffc9c9" stroke="#e03131" stroke-width="1.5" rx="2"/><text x="560" y="473" font-family="Arial, Helvetica, sans-serif" font-size="8" fill="#e03131" font-weight="normal" text-anchor="middle">M90N20</text><rect x="515" y="488" width="90" height="28" fill="#ffc9c9" stroke="#e03131" stroke-width="1.5" rx="2"/><text x="560" y="506" font-family="Arial, Helvetica, sans-serif" font-size="8" fill="#e03131" font-weight="normal" text-anchor="middle">M90N20</text><rect x="645" y="455" width="90" height="28" fill="#ffc9c9" stroke="#e03131" stroke-width="1.5" rx="2"/><text x="690" y="473" font-family="Arial, Helvetica, sans-serif" font-size="8" fill="#e03131" font-weight="normal" text-anchor="middle">M90N20</text><rect x="645" y="488" width="90" height="28" fill="#ffc9c9" stroke="#e03131" stroke-width="1.5" rx="2"/><text x="690" y="506" font-family="Arial, Helvetica, sans-serif" font-size="8" fill="#e03131" font-weight="normal" text-anchor="middle">M90N20</text><text x="500" y="525" font-family="Arial, Helvetica, sans-serif" font-size="10" fill="#e03131" font-weight="normal" text-anchor="middle">8× M90N20 MOSFET 背靠背直贴散热器两侧</text><rect x="280" y="210" width="280" height="90" fill="#b2f2bb" stroke="#2f9e44" stroke-width="2" rx="3"/><text x="500" y="240" font-family="Arial, Helvetica, sans-serif" font-size="12" fill="#2f9e44" font-weight="bold" text-anchor="middle">C2000 主板  200×120mm  4层板</text><text x="500" y="262" font-family="Arial, Helvetica, sans-serif" font-size="9" fill="#2f9e44" font-weight="normal" text-anchor="middle">TMS320F280049 + DAC80508 + 运放 + ADC</text><text x="500" y="282" font-family="Arial, Helvetica, sans-serif" font-size="9" fill="#6c757d" font-weight="normal" text-anchor="middle">安装在散热器上方 15mm 螺柱</text><circle cx="305" cy="305" r="5" fill="#ced4da" stroke="#868e96" stroke-width="1"/><circle cx="405" cy="305" r="5" fill="#ced4da" stroke="#868e96" stroke-width="1"/><circle cx="535" cy="305" r="5" fill="#ced4da" stroke="#868e96" stroke-width="1"/><circle cx="635" cy="305" r="5" fill="#ced4da" stroke="#868e96" stroke-width="1"/><rect x="680" y="245" width="85" height="45" fill="#b2f2bb" stroke="#2f9e44" stroke-width="1.5" rx="2"/><text x="723" y="267" font-family="Arial, Helvetica, sans-serif" font-size="9" fill="#2f9e44" font-weight="bold" text-anchor="middle">反激电源板</text><text x="723" y="284" font-family="Arial, Helvetica, sans-serif" font-size="8" fill="#6c757d" font-weight="normal" text-anchor="middle">70×50mm</text><rect x="680" y="295" width="85" height="38" fill="#99e9f2" stroke="#0c8599" stroke-width="1.5" rx="2"/><text x="723" y="314" font-family="Arial, Helvetica, sans-serif" font-size="9" fill="#0c8599" font-weight="bold" text-anchor="middle">ESP32-S3</text><text x="723" y="328" font-family="Arial, Helvetica, sans-serif" font-size="8" fill="#0c8599" font-weight="normal" text-anchor="middle">Wi-Fi + BLE</text><rect x="170" y="385" width="35" height="35" fill="#fff3bf" stroke="#fab005" stroke-width="1.5" rx="2"/><text x="188" y="404" font-family="Arial, Helvetica, sans-serif" font-size="8" fill="#e67700" font-weight="normal" text-anchor="middle">分流</text><rect x="320" y="125" width="360" height="65" fill="#a5d8ff" stroke="#1971c2" stroke-width="2" rx="5"/><text x="500" y="150" font-family="Arial, Helvetica, sans-serif" font-size="12" fill="#1971c2" font-weight="bold" text-anchor="middle">前面板</text><text x="500" y="172" font-family="Arial, Helvetica, sans-serif" font-size="9" fill="#1971c2" font-weight="normal" text-anchor="middle">铝合金 5mm  |  W310×H120mm  |  RAL 7021</text><line x1="500" y1="195" x2="500.0" y2="311.8" stroke="#1971c2" stroke-width="1.5"/><polygon points="500.0,311.8 496.0,304.8717967697245" fill="#1971c2"/><polygon points="500.0,311.8 504.0,304.8717967697245" fill="#1971c2"/><rect x="320" y="470" width="360" height="65" fill="#a5d8ff" stroke="#1971c2" stroke-width="2" rx="5"/><text x="500" y="495" font-family="Arial, Helvetica, sans-serif" font-size="12" fill="#1971c2" font-weight="bold" text-anchor="middle">后面板</text><text x="500" y="517" font-family="Arial, Helvetica, sans-serif" font-size="9" fill="#1971c2" font-weight="normal" text-anchor="middle">铝合金 5mm  |  含 2×120mm PWM 风扇位</text><line x1="500" y1="465" x2="500.0" y2="448.2" stroke="#1971c2" stroke-width="1.5"/><polygon points="500.0,448.2 504.0,455.1282032302755" fill="#1971c2"/><polygon points="500.0,448.2 496.0,455.1282032302755" fill="#1971c2"/><rect x="160" y="95" width="680" height="16" fill="#a5d8ff" stroke="#1971c2" stroke-width="1.5" rx="2"/><text x="500" y="77" font-family="Arial, Helvetica, sans-serif" font-size="9" fill="#1971c2" font-weight="normal" text-anchor="middle">上盖板  SPCC 1.5mm</text><line x1="500" y1="115" x2="500.0" y2="312.6" stroke="#adb5bd" stroke-dasharray="6,4" stroke-width="1"/><polygon points="500.0,312.6 497.0,307.4038475772934" fill="#adb5bd"/><polygon points="500.0,312.6 503.0,307.4038475772934" fill="#adb5bd"/><rect x="160" y="550" width="680" height="16" fill="#a5d8ff" stroke="#1971c2" stroke-width="1.5" rx="2"/><text x="500" y="585" font-family="Arial, Helvetica, sans-serif" font-size="9" fill="#1971c2" font-weight="normal" text-anchor="middle">底板  SPCC 1.5mm（带底部进风孔）</text><line x1="500" y1="545" x2="500.0" y2="447.4" stroke="#adb5bd" stroke-dasharray="6,4" stroke-width="1"/><polygon points="500.0,447.4 503.0,452.5961524227066" fill="#adb5bd"/><polygon points="500.0,447.4 497.0,452.5961524227066" fill="#adb5bd"/><rect x="200" y="270" width="14" height="220" fill="#a5d8ff" stroke="#1971c2" stroke-width="1.5" rx="0"/><text x="207" y="380.0" font-family="Arial, Helvetica, sans-serif" font-size="8" fill="#1971c2" font-weight="normal" text-anchor="middle">侧</text><rect x="786" y="270" width="14" height="220" fill="#a5d8ff" stroke="#1971c2" stroke-width="1.5" rx="0"/><text x="793" y="380.0" font-family="Arial, Helvetica, sans-serif" font-size="8" fill="#1971c2" font-weight="normal" text-anchor="middle">侧</text><rect x="420" y="460" width="90" height="65" fill="#ffd8a8" stroke="#e8590c" stroke-width="2" rx="3"/><text x="465" y="485" font-family="Arial, Helvetica, sans-serif" font-size="9" fill="#e8590c" font-weight="bold" text-anchor="middle">风扇1</text><text x="465" y="505" font-family="Arial, Helvetica, sans-serif" font-size="8" fill="#e8590c" font-weight="normal" text-anchor="middle">120mm PWM</text><line x1="465" y1="455" x2="465.0" y2="447.4" stroke="#adb5bd" stroke-dasharray="6,4" stroke-width="1"/><polygon points="465.0,447.4 468.0,452.5961524227066" fill="#adb5bd"/><polygon points="465.0,447.4 462.0,452.5961524227066" fill="#adb5bd"/><rect x="530" y="460" width="90" height="65" fill="#ffd8a8" stroke="#e8590c" stroke-width="2" rx="3"/><text x="575" y="485" font-family="Arial, Helvetica, sans-serif" font-size="9" fill="#e8590c" font-weight="bold" text-anchor="middle">风扇2</text><text x="575" y="505" font-family="Arial, Helvetica, sans-serif" font-size="8" fill="#e8590c" font-weight="normal" text-anchor="middle">120mm PWM</text><line x1="575" y1="455" x2="575.0" y2="447.4" stroke="#adb5bd" stroke-dasharray="6,4" stroke-width="1"/><polygon points="575.0,447.4 578.0,452.5961524227066" fill="#adb5bd"/><polygon points="575.0,447.4 572.0,452.5961524227066" fill="#adb5bd"/><rect x="35" y="110" width="200" height="124" fill="#fff3bf" stroke="#fab005" stroke-width="1" rx="4"/><text x="43" y="126" font-family="Arial, Helvetica, sans-serif" font-size="11" fill="#212529" font-weight="normal" text-anchor="start">设计要点：</text><text x="43" y="144" font-family="Arial, Helvetica, sans-serif" font-size="11" fill="#212529" font-weight="normal" text-anchor="start">• 散热器为结构脊柱</text><text x="43" y="162" font-family="Arial, Helvetica, sans-serif" font-size="11" fill="#212529" font-weight="normal" text-anchor="start">• 前后面板固定于两端</text><text x="43" y="180" font-family="Arial, Helvetica, sans-serif" font-size="11" fill="#212529" font-weight="normal" text-anchor="start">• PCB 架在散热器上方</text><text x="43" y="198" font-family="Arial, Helvetica, sans-serif" font-size="11" fill="#212529" font-weight="normal" text-anchor="start">• SPCC 壳体包裹外围</text><text x="43" y="216" font-family="Arial, Helvetica, sans-serif" font-size="11" fill="#212529" font-weight="normal" text-anchor="start">• 尺寸 W310×D370×H120mm</text>
<rect x="995" y="55" width="1030" height="390" fill="#f8f9fa" stroke="#dee2e6" stroke-width="1" rx="0"/><text x="1510" y="77" font-family="Arial, Helvetica, sans-serif" font-size="16" fill="#212529" font-weight="bold" text-anchor="middle">B-B : 前面板布局  (W310×H120mm)</text><rect x="1200" y="130" width="620" height="240" fill="#fff" stroke="#212529" stroke-width="2.5" rx="6"/><line x1="1190" y1="378" x2="1830" y2="378" stroke="#dee2e6" stroke-width="1"/><text x="1510" y="392" font-family="Arial, Helvetica, sans-serif" font-size="10" fill="#6c757d" font-weight="normal" text-anchor="middle">面板仰角约 15°</text><rect x="1202" y="132" width="616" height="30" fill="#343a40" stroke="#adb5bd" stroke-width="1" rx="4"/><text x="1510" y="156" font-family="Arial, Helvetica, sans-serif" font-size="11" fill="#fff" font-weight="bold" text-anchor="middle">1000W 可编程直流电子负载</text><rect x="1230" y="165" width="210" height="130" fill="#e9ecef" stroke="#212529" stroke-width="2" rx="6"/><rect x="1238" y="173" width="194" height="114" fill="#dee2e6" stroke="#adb5bd" stroke-width="1" rx="0"/><text x="1335.0" y="218.0" font-family="Arial, Helvetica, sans-serif" font-size="12" fill="#212529" font-weight="bold" text-anchor="middle">4.3" IPS TFT</text><text x="1335.0" y="236.0" font-family="Arial, Helvetica, sans-serif" font-size="9" fill="#212529" font-weight="normal" text-anchor="middle">800×480  电容触摸</text><text x="1335.0" y="307" font-family="Arial, Helvetica, sans-serif" font-size="9" fill="#6c757d" font-weight="normal" text-anchor="middle">显示屏</text><circle cx="1630.0" cy="230.0" r="28" fill="#fff" stroke="#212529" stroke-width="2"/><circle cx="1630.0" cy="230.0" r="18" fill="#e9ecef" stroke="#adb5bd" stroke-width="1.5"/><circle cx="1630.0" cy="230.0" r="6" fill="#212529" stroke="#adb5bd" stroke-width="1"/><text x="1630.0" y="270.0" font-family="Arial, Helvetica, sans-serif" font-size="9" fill="#212529" font-weight="normal" text-anchor="middle">编码器</text><text x="1630.0" y="294.0" font-family="Arial, Helvetica, sans-serif" font-size="8" fill="#6c757d" font-weight="normal" text-anchor="middle">（旋转+按键确认）</text><circle cx="1690.0" cy="200.0" r="6" fill="#2f9e44" stroke="#adb5bd" stroke-width="1"/><text x="1690.0" y="182.0" font-family="Arial, Helvetica, sans-serif" font-size="8" fill="#6c757d" font-weight="normal" text-anchor="middle">状态</text><rect x="1702.0" y="220.0" width="30" height="24" fill="#fff" stroke="#212529" stroke-width="1.5" rx="4"/><text x="1717.0" y="232.0" font-family="Arial, Helvetica, sans-serif" font-size="7" fill="#212529" font-weight="normal" text-anchor="middle">电源</text><rect x="1542.0" y="250.0" width="40" height="20" fill="#212529" stroke="#adb5bd" stroke-width="1" rx="4"/><text x="1552.0" y="266.0" font-family="Arial, Helvetica, sans-serif" font-size="7" fill="#fff" font-weight="normal" text-anchor="middle">USB</text><text x="1552.0" y="282.0" font-family="Arial, Helvetica, sans-serif" font-size="8" fill="#6c757d" font-weight="normal" text-anchor="middle">USB-A Host</text><circle cx="1280" cy="335.0" r="24" fill="#ffc9c9" stroke="#e03131" stroke-width="2"/><text x="1280" y="339.0" font-family="Arial, Helvetica, sans-serif" font-size="16" fill="#e03131" font-weight="bold" text-anchor="middle">+</text><text x="1280" y="371.0" font-family="Arial, Helvetica, sans-serif" font-size="10" fill="#e03131" font-weight="bold" text-anchor="middle">DC+</text><text x="1280" y="391.0" font-family="Arial, Helvetica, sans-serif" font-size="8" fill="#e03131" font-weight="normal" text-anchor="middle">60A</text><circle cx="1400" cy="335.0" r="24" fill="#a5d8ff" stroke="#1971c2" stroke-width="2"/><text x="1400" y="339.0" font-family="Arial, Helvetica, sans-serif" font-size="16" fill="#1971c2" font-weight="bold" text-anchor="middle">−</text><text x="1400" y="371.0" font-family="Arial, Helvetica, sans-serif" font-size="10" fill="#1971c2" font-weight="bold" text-anchor="middle">DC−</text><text x="1400" y="391.0" font-family="Arial, Helvetica, sans-serif" font-size="8" fill="#1971c2" font-weight="normal" text-anchor="middle">60A</text><circle cx="1520" cy="335.0" r="14" fill="#fff" stroke="#0c8599" stroke-width="1.5"/><text x="1520" y="363.0" font-family="Arial, Helvetica, sans-serif" font-size="9" fill="#0c8599" font-weight="normal" text-anchor="middle">S+</text><circle cx="1590" cy="335.0" r="14" fill="#fff" stroke="#0c8599" stroke-width="1.5"/><text x="1590" y="363.0" font-family="Arial, Helvetica, sans-serif" font-size="9" fill="#0c8599" font-weight="normal" text-anchor="middle">S−</text><text x="1610" y="391.0" font-family="Arial, Helvetica, sans-serif" font-size="8" fill="#6c757d" font-weight="normal" text-anchor="start">远程采样</text><line x1="1200" y1="370" x2="1170" y2="370" stroke="#fa5252" stroke-width="0.8"/><line x1="1200" y1="130" x2="1170" y2="130" stroke="#fa5252" stroke-width="0.8"/><line x1="1174" y1="130" x2="1174" y2="370" stroke="#fa5252" stroke-width="0.8"/><text x="1174" y="255.0" font-family="Arial, Helvetica, sans-serif" font-size="10" fill="#fa5252" font-weight="normal" text-anchor="end">310mm</text><line x1="1820" y1="370" x2="1850" y2="370" stroke="#fa5252" stroke-width="0.8"/><line x1="1820" y1="130" x2="1850" y2="130" stroke="#fa5252" stroke-width="0.8"/><line x1="1846" y1="130" x2="1846" y2="370" stroke="#fa5252" stroke-width="0.8"/><text x="1846" y="255.0" font-family="Arial, Helvetica, sans-serif" font-size="10" fill="#fa5252" font-weight="normal" text-anchor="start">120mm</text>
<rect x="20" y="750" width="960" height="600" fill="#f8f9fa" stroke="#dee2e6" stroke-width="1" rx="0"/><text x="500" y="772" font-family="Arial, Helvetica, sans-serif" font-size="16" fill="#212529" font-weight="bold" text-anchor="middle">C-C : 内部俯视图  (W310×D370mm)</text><rect x="190" y="715" width="620" height="740" fill="#f1f3f5" stroke="#212529" stroke-width="2.5" rx="6"/><rect x="350" y="735" width="300" height="700" fill="#d0bfff" stroke="#845ef7" stroke-width="2" rx="2"/><line x1="362" y1="751" x2="638" y2="751" stroke="#845ef7" stroke-width="0.5"/><line x1="362" y1="799" x2="638" y2="799" stroke="#845ef7" stroke-width="0.5"/><line x1="362" y1="847" x2="638" y2="847" stroke="#845ef7" stroke-width="0.5"/><line x1="362" y1="895" x2="638" y2="895" stroke="#845ef7" stroke-width="0.5"/><line x1="362" y1="943" x2="638" y2="943" stroke="#845ef7" stroke-width="0.5"/><line x1="362" y1="991" x2="638" y2="991" stroke="#845ef7" stroke-width="0.5"/><line x1="362" y1="1039" x2="638" y2="1039" stroke="#845ef7" stroke-width="0.5"/><line x1="362" y1="1087" x2="638" y2="1087" stroke="#845ef7" stroke-width="0.5"/><line x1="362" y1="1135" x2="638" y2="1135" stroke="#845ef7" stroke-width="0.5"/><line x1="362" y1="1183" x2="638" y2="1183" stroke="#845ef7" stroke-width="0.5"/><line x1="362" y1="1231" x2="638" y2="1231" stroke="#845ef7" stroke-width="0.5"/><line x1="362" y1="1279" x2="638" y2="1279" stroke="#845ef7" stroke-width="0.5"/><line x1="362" y1="1327" x2="638" y2="1327" stroke="#845ef7" stroke-width="0.5"/><line x1="362" y1="1375" x2="638" y2="1375" stroke="#845ef7" stroke-width="0.5"/><text x="500" y="707" font-family="Arial, Helvetica, sans-serif" font-size="10" fill="#845ef7" font-weight="normal" text-anchor="middle">散热器 150×350mm（铝型材）</text><rect x="360" y="775" width="90" height="36" fill="#ffc9c9" stroke="#e03131" stroke-width="1.5" rx="2"/><text x="405" y="799" font-family="Arial, Helvetica, sans-serif" font-size="8" fill="#e03131" font-weight="normal" text-anchor="middle">M1</text><rect x="560" y="775" width="90" height="36" fill="#ffc9c9" stroke="#e03131" stroke-width="1.5" rx="2"/><text x="605" y="799" font-family="Arial, Helvetica, sans-serif" font-size="8" fill="#e03131" font-weight="normal" text-anchor="middle">M2</text><rect x="360" y="935" width="90" height="36" fill="#ffc9c9" stroke="#e03131" stroke-width="1.5" rx="2"/><text x="405" y="959" font-family="Arial, Helvetica, sans-serif" font-size="8" fill="#e03131" font-weight="normal" text-anchor="middle">M3</text><rect x="560" y="935" width="90" height="36" fill="#ffc9c9" stroke="#e03131" stroke-width="1.5" rx="2"/><text x="605" y="959" font-family="Arial, Helvetica, sans-serif" font-size="8" fill="#e03131" font-weight="normal" text-anchor="middle">M4</text><rect x="360" y="1095" width="90" height="36" fill="#ffc9c9" stroke="#e03131" stroke-width="1.5" rx="2"/><text x="405" y="1119" font-family="Arial, Helvetica, sans-serif" font-size="8" fill="#e03131" font-weight="normal" text-anchor="middle">M5</text><rect x="560" y="1095" width="90" height="36" fill="#ffc9c9" stroke="#e03131" stroke-width="1.5" rx="2"/><text x="605" y="1119" font-family="Arial, Helvetica, sans-serif" font-size="8" fill="#e03131" font-weight="normal" text-anchor="middle">M6</text><rect x="360" y="1255" width="90" height="36" fill="#ffc9c9" stroke="#e03131" stroke-width="1.5" rx="2"/><text x="405" y="1279" font-family="Arial, Helvetica, sans-serif" font-size="8" fill="#e03131" font-weight="normal" text-anchor="middle">M7</text><rect x="560" y="1255" width="90" height="36" fill="#ffc9c9" stroke="#e03131" stroke-width="1.5" rx="2"/><text x="605" y="1279" font-family="Arial, Helvetica, sans-serif" font-size="8" fill="#e03131" font-weight="normal" text-anchor="middle">M8</text><text x="500" y="1447" font-family="Arial, Helvetica, sans-serif" font-size="10" fill="#e03131" font-weight="normal" text-anchor="middle">8× M90N20 背靠背排列</text><rect x="210" y="735" width="400" height="240" fill="#b2f2bb" stroke="#2f9e44" stroke-width="2" rx="3"/><text x="410.0" y="795" font-family="Arial, Helvetica, sans-serif" font-size="11" fill="#2f9e44" font-weight="bold" text-anchor="middle">C2000 主板</text><text x="410.0" y="835" font-family="Arial, Helvetica, sans-serif" font-size="9" fill="#2f9e44" font-weight="normal" text-anchor="middle">TMS320F280049</text><text x="410.0" y="871" font-family="Arial, Helvetica, sans-serif" font-size="9" fill="#2f9e44" font-weight="normal" text-anchor="middle">DAC80508 + 运放 + ADC</text><text x="410.0" y="911" font-family="Arial, Helvetica, sans-serif" font-size="9" fill="#6c757d" font-weight="normal" text-anchor="middle">200×120mm  4层</text><text x="410.0" y="945" font-family="Arial, Helvetica, sans-serif" font-size="8" fill="#6c757d" font-weight="normal" text-anchor="middle">安装在散热器上方15mm螺柱</text><rect x="210" y="1335" width="140" height="90" fill="#b2f2bb" stroke="#2f9e44" stroke-width="1.5" rx="2"/><text x="270" y="1435" font-family="Arial, Helvetica, sans-serif" font-size="9" fill="#2f9e44" font-weight="bold" text-anchor="middle">反激电源</text><text x="270" y="1465" font-family="Arial, Helvetica, sans-serif" font-size="8" fill="#6c757d" font-weight="normal" text-anchor="middle">70×50mm</text><rect x="650" y="1335" width="140" height="90" fill="#99e9f2" stroke="#0c8599" stroke-width="1.5" rx="2"/><text x="720" y="1435" font-family="Arial, Helvetica, sans-serif" font-size="9" fill="#0c8599" font-weight="bold" text-anchor="middle">ESP32-S3</text><text x="720" y="1465" font-family="Arial, Helvetica, sans-serif" font-size="8" fill="#0c8599" font-weight="normal" text-anchor="middle">Wi-Fi + BLE</text><rect x="300" y="745" width="40" height="80" fill="#fff3bf" stroke="#fab005" stroke-width="1.5" rx="2"/><text x="320" y="785" font-family="Arial, Helvetica, sans-serif" font-size="8" fill="#e67700" font-weight="normal" text-anchor="middle">分流</text><text x="320" y="811" font-family="Arial, Helvetica, sans-serif" font-size="8" fill="#e67700" font-weight="normal" text-anchor="middle">×2</text><rect x="275" y="1165" width="210" height="210" fill="#ffd8a8" stroke="#e8590c" stroke-width="2" rx="8"/><circle cx="380.0" cy="1270.0" r="60" fill="none" stroke="#e8590c" stroke-width="1.5"/><circle cx="380.0" cy="1270.0" r="36" fill="none" stroke="#e8590c" stroke-width="1.5"/><circle cx="380.0" cy="1270.0" r="20" fill="#e8590c" stroke="#adb5bd" stroke-width="1"/><line x1="340.0" y1="1270.0" x2="420.0" y2="1270.0" stroke="#e8590c" stroke-width="1"/><line x1="380.0" y1="1230.0" x2="380.0" y2="1310.0" stroke="#e8590c" stroke-width="1"/><text x="380.0" y="1399" font-family="Arial, Helvetica, sans-serif" font-size="9" fill="#e8590c" font-weight="normal" text-anchor="middle">风扇1</text><rect x="515" y="1165" width="210" height="210" fill="#ffd8a8" stroke="#e8590c" stroke-width="2" rx="8"/><circle cx="620.0" cy="1270.0" r="60" fill="none" stroke="#e8590c" stroke-width="1.5"/><circle cx="620.0" cy="1270.0" r="36" fill="none" stroke="#e8590c" stroke-width="1.5"/><circle cx="620.0" cy="1270.0" r="20" fill="#e8590c" stroke="#adb5bd" stroke-width="1"/><line x1="580.0" y1="1270.0" x2="660.0" y2="1270.0" stroke="#e8590c" stroke-width="1"/><line x1="620.0" y1="1230.0" x2="620.0" y2="1310.0" stroke="#e8590c" stroke-width="1"/><text x="620.0" y="1399" font-family="Arial, Helvetica, sans-serif" font-size="9" fill="#e8590c" font-weight="normal" text-anchor="middle">风扇2</text><text x="500" y="1439" font-family="Arial, Helvetica, sans-serif" font-size="10" fill="#e8590c" font-weight="normal" text-anchor="middle">2× 120mm PWM  |  12V  |  后排风  |  转速可控</text><line x1="450" y1="720" x2="450.0" y2="1156.0" stroke="#74c0fc" stroke-width="2.5"/><polygon points="450.0,1156.0 445.0,1147.3397459621556" fill="#74c0fc"/><polygon points="450.0,1156.0 455.0,1147.3397459621556" fill="#74c0fc"/><line x1="550" y1="720" x2="550.0" y2="1156.0" stroke="#74c0fc" stroke-width="2.5"/><polygon points="550.0,1156.0 545.0,1147.3397459621556" fill="#74c0fc"/><polygon points="550.0,1156.0 555.0,1147.3397459621556" fill="#74c0fc"/><text x="500" y="699" font-family="Arial, Helvetica, sans-serif" font-size="10" fill="#74c0fc" font-weight="normal" text-anchor="middle">↓ 底部进风 → 散热器翅片 → 风扇 → 后排风</text><rect x="610" y="815" width="190" height="160" fill="#fff3bf" stroke="#fab005" stroke-width="1" rx="4"/><text x="618" y="831" font-family="Arial, Helvetica, sans-serif" font-size="11" fill="#212529" font-weight="normal" text-anchor="start">风道设计：</text><text x="618" y="849" font-family="Arial, Helvetica, sans-serif" font-size="11" fill="#212529" font-weight="normal" text-anchor="start">↓ 底部进风口（底板开孔）</text><text x="618" y="867" font-family="Arial, Helvetica, sans-serif" font-size="11" fill="#212529" font-weight="normal" text-anchor="start">↓ 贯穿散热器翅片</text><text x="618" y="885" font-family="Arial, Helvetica, sans-serif" font-size="11" fill="#212529" font-weight="normal" text-anchor="start">↓ 双 120mm 风扇抽风</text><text x="618" y="903" font-family="Arial, Helvetica, sans-serif" font-size="11" fill="#212529" font-weight="normal" text-anchor="start">↓ 后面板排风口</text><text x="618" y="921" font-family="Arial, Helvetica, sans-serif" font-size="11" fill="#212529" font-weight="normal" text-anchor="start"></text><text x="618" y="939" font-family="Arial, Helvetica, sans-serif" font-size="11" fill="#212529" font-weight="normal" text-anchor="start">散热器 350mm 长贯穿机箱</text><text x="618" y="957" font-family="Arial, Helvetica, sans-serif" font-size="11" fill="#212529" font-weight="normal" text-anchor="start">前后，气流覆盖全部翅片</text><line x1="190" y1="1455" x2="175" y2="1455" stroke="#fa5252" stroke-width="0.8"/><line x1="190" y1="715" x2="175" y2="715" stroke="#fa5252" stroke-width="0.8"/><line x1="177" y1="715" x2="177" y2="1455" stroke="#fa5252" stroke-width="0.8"/><text x="177" y="1090.0" font-family="Arial, Helvetica, sans-serif" font-size="10" fill="#fa5252" font-weight="normal" text-anchor="end">370mm</text><line x1="810" y1="1455" x2="825" y2="1455" stroke="#fa5252" stroke-width="0.8"/><line x1="810" y1="715" x2="825" y2="715" stroke="#fa5252" stroke-width="0.8"/><line x1="823" y1="715" x2="823" y2="1455" stroke="#fa5252" stroke-width="0.8"/><text x="823" y="1090.0" font-family="Arial, Helvetica, sans-serif" font-size="10" fill="#fa5252" font-weight="normal" text-anchor="start">310mm</text>
<rect x="995" y="480" width="1030" height="870" fill="#f8f9fa" stroke="#dee2e6" stroke-width="1" rx="0"/><text x="1510" y="502" font-family="Arial, Helvetica, sans-serif" font-size="16" fill="#212529" font-weight="bold" text-anchor="middle">D-D : 后面板布局  (W310×H120mm)</text><rect x="1200" y="800" width="620" height="240" fill="#fff" stroke="#212529" stroke-width="2.5" rx="6"/><rect x="1346" y="815" width="210" height="210" fill="#ffd8a8" stroke="#e8590c" stroke-width="2" rx="8"/><circle cx="1451.0" cy="920.0" r="60" fill="none" stroke="#e8590c" stroke-width="1.5"/><circle cx="1451.0" cy="920.0" r="36" fill="none" stroke="#e8590c" stroke-width="1.5"/><circle cx="1451.0" cy="920.0" r="20" fill="#e8590c" stroke="#adb5bd" stroke-width="1"/><line x1="1411.0" y1="920.0" x2="1491.0" y2="920.0" stroke="#e8590c" stroke-width="1"/><line x1="1451.0" y1="880.0" x2="1451.0" y2="960.0" stroke="#e8590c" stroke-width="1"/><text x="1451.0" y="1049" font-family="Arial, Helvetica, sans-serif" font-size="8" fill="#e8590c" font-weight="normal" text-anchor="middle">120mm 风扇1</text><rect x="1580" y="815" width="210" height="210" fill="#ffd8a8" stroke="#e8590c" stroke-width="2" rx="8"/><circle cx="1685.0" cy="920.0" r="60" fill="none" stroke="#e8590c" stroke-width="1.5"/><circle cx="1685.0" cy="920.0" r="36" fill="none" stroke="#e8590c" stroke-width="1.5"/><circle cx="1685.0" cy="920.0" r="20" fill="#e8590c" stroke="#adb5bd" stroke-width="1"/><line x1="1645.0" y1="920.0" x2="1725.0" y2="920.0" stroke="#e8590c" stroke-width="1"/><line x1="1685.0" y1="880.0" x2="1685.0" y2="960.0" stroke="#e8590c" stroke-width="1"/><text x="1685.0" y="1049" font-family="Arial, Helvetica, sans-serif" font-size="8" fill="#e8590c" font-weight="normal" text-anchor="middle">120mm 风扇2</text><rect x="1230" y="824" width="110" height="60" fill="#212529" stroke="#adb5bd" stroke-width="1" rx="6"/><rect x="1250" y="840" width="70" height="28" fill="#dee2e6" stroke="#adb5bd" stroke-width="1" rx="2"/><text x="1284" y="864" font-family="Arial, Helvetica, sans-serif" font-size="8" fill="#212529" font-weight="normal" text-anchor="middle">IEC</text><text x="1284" y="900" font-family="Arial, Helvetica, sans-serif" font-size="8" fill="#212529" font-weight="normal" text-anchor="middle">AC 输入</text><text x="1284" y="920" font-family="Arial, Helvetica, sans-serif" font-size="7" fill="#6c757d" font-weight="normal" text-anchor="middle">含保险丝座</text><rect x="1240" y="904" width="44" height="24" fill="#212529" stroke="#adb5bd" stroke-width="1" rx="2"/><text x="1262" y="924" font-family="Arial, Helvetica, sans-serif" font-size="7" fill="#fff" font-weight="normal" text-anchor="middle">USB-C</text><text x="1262" y="948" font-family="Arial, Helvetica, sans-serif" font-size="7" fill="#6c757d" font-weight="normal" text-anchor="middle">PC 通信 /</text><text x="1262" y="968" font-family="Arial, Helvetica, sans-serif" font-size="7" fill="#6c757d" font-weight="normal" text-anchor="middle">固件升级</text><circle cx="1262" cy="964" r="8" fill="#fff" stroke="#212529" stroke-width="1.5"/><circle cx="1262" cy="964" r="4" fill="#212529" stroke="#adb5bd" stroke-width="1"/><text x="1262" y="980" font-family="Arial, Helvetica, sans-serif" font-size="7" fill="#212529" font-weight="normal" text-anchor="middle">SMA</text><text x="1262" y="1000" font-family="Arial, Helvetica, sans-serif" font-size="7" fill="#6c757d" font-weight="normal" text-anchor="middle">天线</text><rect x="1230" y="1020" width="70" height="32" fill="#99e9f2" stroke="#0c8599" stroke-width="1.5" rx="2"/><text x="1264" y="1044" font-family="Arial, Helvetica, sans-serif" font-size="7" fill="#0c8599" font-weight="normal" text-anchor="middle">PMBus</text><rect x="1230" y="1064" width="70" height="32" fill="#99e9f2" stroke="#0c8599" stroke-width="1.5" rx="2"/><text x="1264" y="1088" font-family="Arial, Helvetica, sans-serif" font-size="7" fill="#0c8599" font-weight="normal" text-anchor="middle">CANbus</text><rect x="1330" y="1020" width="120" height="76" fill="#e9ecef" stroke="#adb5bd" stroke-width="1" rx="2" stroke-dasharray="4,3"/><text x="1390" y="1052" font-family="Arial, Helvetica, sans-serif" font-size="8" fill="#adb5bd" font-weight="normal" text-anchor="middle">RJ45</text><text x="1390" y="1080" font-family="Arial, Helvetica, sans-serif" font-size="7" fill="#adb5bd" font-weight="normal" text-anchor="middle">预留 V1.0</text><circle cx="1490" cy="1080" r="12" fill="#ffc9c9" stroke="#e03131" stroke-width="1.5"/><line x1="1484" y1="1088" x2="1496" y2="1088" stroke="#e03131" stroke-width="1"/><line x1="1490" y1="1074" x2="1490" y2="1088" stroke="#e03131" stroke-width="1"/><text x="1490" y="1076" font-family="Arial, Helvetica, sans-serif" font-size="7" fill="#e03131" font-weight="normal" text-anchor="middle">PE</text><text x="1490" y="1108" font-family="Arial, Helvetica, sans-serif" font-size="7" fill="#6c757d" font-weight="normal" text-anchor="middle">M4 接地</text><line x1="1200" y1="1040" x2="1185" y2="1040" stroke="#fa5252" stroke-width="0.8"/><line x1="1200" y1="800" x2="1185" y2="800" stroke="#fa5252" stroke-width="0.8"/><line x1="1187" y1="800" x2="1187" y2="1040" stroke="#fa5252" stroke-width="0.8"/><text x="1187" y="925.0" font-family="Arial, Helvetica, sans-serif" font-size="10" fill="#fa5252" font-weight="normal" text-anchor="end">310mm</text><line x1="1820" y1="1040" x2="1835" y2="1040" stroke="#fa5252" stroke-width="0.8"/><line x1="1820" y1="800" x2="1835" y2="800" stroke="#fa5252" stroke-width="0.8"/><line x1="1833" y1="800" x2="1833" y2="1040" stroke="#fa5252" stroke-width="0.8"/><text x="1833" y="925.0" font-family="Arial, Helvetica, sans-serif" font-size="10" fill="#fa5252" font-weight="normal" text-anchor="start">120mm</text><rect x="1200" y="1055" width="200" height="160" fill="#fff3bf" stroke="#fab005" stroke-width="1" rx="4"/><text x="1208" y="1071" font-family="Arial, Helvetica, sans-serif" font-size="11" fill="#212529" font-weight="normal" text-anchor="start">后面板接口（左→右）：</text><text x="1208" y="1089" font-family="Arial, Helvetica, sans-serif" font-size="11" fill="#212529" font-weight="normal" text-anchor="start">IEC = AC 输入 + 保险丝座</text><text x="1208" y="1107" font-family="Arial, Helvetica, sans-serif" font-size="11" fill="#212529" font-weight="normal" text-anchor="start">USB-C = 调试 / 固件升级</text><text x="1208" y="1125" font-family="Arial, Helvetica, sans-serif" font-size="11" fill="#212529" font-weight="normal" text-anchor="start">SMA = 2.4G WiFi/BLE 天线</text><text x="1208" y="1143" font-family="Arial, Helvetica, sans-serif" font-size="11" fill="#212529" font-weight="normal" text-anchor="start">PMBus = I2C 电源管理</text><text x="1208" y="1161" font-family="Arial, Helvetica, sans-serif" font-size="11" fill="#212529" font-weight="normal" text-anchor="start">CANbus = CAN 2.0 工业总线</text><text x="1208" y="1179" font-family="Arial, Helvetica, sans-serif" font-size="11" fill="#212529" font-weight="normal" text-anchor="start">RJ45 = 预留（V1.0 不焊）</text><text x="1208" y="1197" font-family="Arial, Helvetica, sans-serif" font-size="11" fill="#212529" font-weight="normal" text-anchor="start">PE = M4 保护接地</text><rect x="1410" y="1055" width="210" height="178" fill="#fff3bf" stroke="#fab005" stroke-width="1" rx="4"/><text x="1418" y="1071" font-family="Arial, Helvetica, sans-serif" font-size="11" fill="#212529" font-weight="normal" text-anchor="start">重量预算（修正后）：</text><text x="1418" y="1089" font-family="Arial, Helvetica, sans-serif" font-size="11" fill="#212529" font-weight="normal" text-anchor="start">散热器：       ~2.5 kg</text><text x="1418" y="1107" font-family="Arial, Helvetica, sans-serif" font-size="11" fill="#212529" font-weight="normal" text-anchor="start">壳体(SPCC)：   ~1.0 kg</text><text x="1418" y="1125" font-family="Arial, Helvetica, sans-serif" font-size="11" fill="#212529" font-weight="normal" text-anchor="start">PCB+元器件：   ~0.5 kg</text><text x="1418" y="1143" font-family="Arial, Helvetica, sans-serif" font-size="11" fill="#212529" font-weight="normal" text-anchor="start">风扇×2：       ~0.3 kg</text><text x="1418" y="1161" font-family="Arial, Helvetica, sans-serif" font-size="11" fill="#212529" font-weight="normal" text-anchor="start">变压器/线缆等：~0.7 kg</text><text x="1418" y="1179" font-family="Arial, Helvetica, sans-serif" font-size="11" fill="#212529" font-weight="normal" text-anchor="start">───────────────</text><text x="1418" y="1197" font-family="Arial, Helvetica, sans-serif" font-size="11" fill="#212529" font-weight="normal" text-anchor="start">总计：         ~5.0 kg</text><text x="1418" y="1215" font-family="Arial, Helvetica, sans-serif" font-size="11" fill="#212529" font-weight="normal" text-anchor="start">★ 建议放宽至 6-7kg</text>

<line x1="20" y1="1370" x2="2020" y2="1370" stroke="#dee2e6" stroke-width="1"/>
<text x="20" y="1388" font-family="Arial, Helvetica, sans-serif" font-size="11" fill="#adb5bd">SYS-ARCH-006-S1 v4 — 修正尺寸版 — 四视图</text>
<text x="2020" y="1388" font-family="Arial, Helvetica, sans-serif" font-size="11" fill="#adb5bd" text-anchor="end">图纸 1/1 — Rev B</text>
</svg>